<?xml version="1.0" encoding="utf-8" standalone="no" ?>
<svg xmlns="http://www.w3.org/2000/svg" xmlns:xlink="http://www.w3.org/1999/xlink" preserveAspectRatio="xMidYMid" width="771" height="484" viewBox="0 0 771 484">
    <defs>
        <style>
            .cls-1 {
                fill: #171814;
            }

            .cls-2 {
                fill: #a0a0a0;
            }

            .cls-15, .cls-2, .cls-5 {
                fill-rule: evenodd;
            }

            .cls-3, .cls-5 {
                fill: #272822;
            }

            .cls-4 {
                fill: #42433f;
            }

            .cls-6, .cls-7 {
                font-size: 20px;
            }

            .cls-7 {
                fill: #a9a9a9;
            }

            .cls-11, .cls-13, .cls-7 {
                font-family: "Myriad Pro";
            }

            .cls-10, .cls-11, .cls-12, .cls-13, .cls-14, .cls-8, .cls-9 {
                font-size: 24px;
                fill: #fff;
            }

            .cls-9 {
                fill: #fff;
            }

            .cls-10, .cls-12, .cls-14, .cls-9 {
                font-family: "Courier New";
            }

            .cls-10 {
                fill: #de2480;
            }

            .cls-11 {
                fill: #6e6e6e;
            }

            .cls-12 {
                fill: #b1f688;
            }

            .cls-13 {
                fill: #fee9a5;
            }

            .cls-14 {
                fill: #fff0c1;
            }

            .cls-15 {
                fill: #5c5c5c;
            }
        </style>
    </defs>
    <rect width="771" height="28" class="cls-1" />
    <path d="M28.000,13.511 L21.600,17.012 L21.600,10.010 L28.000,13.511 Z" class="cls-2" />
    <path d="M12.000,13.511 L18.400,17.012 L18.400,10.010 L12.000,13.511 Z" class="cls-2" />
    <rect y="28" width="771" height="455" class="cls-3" />
    <rect y="36" width="26.625" height="12.844" class="cls-4" />
    <path d="M52.000,6.000 L151.000,6.000 C154.314,6.000 155.581,8.280 158.000,12.000 L168.000,28.000 C168.000,31.314 165.314,34.000 162.000,34.000 L41.000,34.000 C37.686,34.000 35.000,31.314 35.000,28.000 L45.000,12.000 C47.374,8.301 48.686,6.000 52.000,6.000 Z" class="cls-5" />
    <text transform="translate(56 19) scale(0.5 0.5)" class="cls-6"><tspan class="cls-7">PodFile</tspan></text>
    <text transform="translate(101 46) scale(0.46 0.46)" class="cls-8"><tspan class="cls-9"></tspan></text>
    <text transform="translate(48 46) scale(0.46 0.46)" class="cls-8"><tspan class="cls-10"></tspan></text>
    <text transform="translate(34 46) scale(0.46 0.46)" class="cls-8"><tspan class="cls-9"></tspan>target 'D7SMS' do</text>
    <text transform="translate(9 46) scale(0.46 0.46)" class="cls-8"><tspan class="cls-11"></tspan></text>
    <text transform="translate(73 63) scale(0.46 0.46)" class="cls-8"><tspan class="cls-9"></tspan></text>
    <text transform="translate(44 63) scale(0.46 0.46)" class="cls-8"><tspan class="cls-10"></tspan>pod 'D7SMS', :path => 'Vendor/D7SMS-ObjC
    </text>
    <text transform="translate(34 63) scale(0.46 0.46)" class="cls-8"><tspan class="cls-9"></tspan></text>
    <text transform="translate(9 63) scale(0.46 0.46)" class="cls-8"><tspan class="cls-11">2</tspan></text>
    <text transform="translate(78 199) scale(0.46 0.46)" class="cls-8"><tspan class="cls-9"></tspan></text>
    <text transform="translate(42 199) scale(0.46 0.46)" class="cls-8"><tspan class="cls-10"></tspan></text>
    <text transform="translate(34 199) scale(0.46 0.46)" class="cls-8"><tspan class="cls-9"></tspan></text>
    <text transform="translate(9 199) scale(0.46 0.46)" class="cls-8"><tspan class="cls-11"></tspan></text>
    <text transform="translate(73 78) scale(0.46 0.46)" class="cls-8"><tspan class="cls-9"></tspan></text>
    <text transform="translate(44 78) scale(0.46 0.46)" class="cls-8"><tspan class="cls-10"></tspan></text>
    <text transform="translate(34 78) scale(0.46 0.46)" class="cls-8"><tspan class="cls-9"></tspan>end</text>
    <text transform="translate(9 78) scale(0.46 0.46)" class="cls-8"><tspan class="cls-11"></tspan></text>
    <text transform="translate(113 93) scale(0.46 0.46)" class="cls-8"><tspan class="cls-9"></tspan></text>
    <text transform="translate(281 93) scale(0.46 0.46)" class="cls-8"><tspan class="cls-9"></tspan></text>
    <text transform="translate(76 93) scale(0.46 0.46)" class="cls-8"><tspan class="cls-10"></tspan></text>
    <text transform="translate(244 93) scale(0.46 0.46)" class="cls-8"><tspan class="cls-10"></tspan></text>
    <text transform="translate(67 93) scale(0.46 0.46)" class="cls-8"><tspan class="cls-9"></tspan></text>
    <text transform="translate(9 93) scale(0.46 0.46)" class="cls-8"><tspan class="cls-11"></tspan></text>
    <text transform="translate(76 109) scale(0.46 0.46)" class="cls-8"><tspan class="cls-10"></tspan></text>
    <text transform="translate(126 109) scale(0.46 0.46)" class="cls-8"><tspan class="cls-12"></tspan></text>
    <text transform="translate(67 109) scale(0.46 0.46)" class="cls-8"><tspan class="cls-9"></tspan></text>
    <text transform="translate(151 109) scale(0.46 0.46)" class="cls-8"><tspan class="cls-9"></tspan></text>
    <text transform="translate(667 109) scale(0.46 0.46)" class="cls-8"><tspan class="cls-9"></tspan></text>
    <text transform="translate(732 109) scale(0.46 0.46)" class="cls-8"><tspan class="cls-9"></tspan></text>
    <text transform="translate(688 109) scale(0.46 0.46)" class="cls-8"><tspan class="cls-10"></tspan></text>
    <text transform="translate(164 107) scale(0.46 0.46)" class="cls-8"><tspan class="cls-13"></tspan></text>
    <text transform="translate(658 107) scale(0.46 0.46)" class="cls-8"><tspan class="cls-13"></tspan></text>
    <text transform="translate(170 109) scale(0.46 0.46)" class="cls-8"><tspan class="cls-14"></tspan></text>
    <text transform="translate(9 109) scale(0.46 0.46)" class="cls-8"><tspan class="cls-11"></tspan></text>
    <text transform="translate(49 125) scale(0.46 0.46)" class="cls-8"><tspan class="cls-10"></tspan></text>
    <text transform="translate(34 125) scale(0.46 0.46)" class="cls-8"><tspan class="cls-9"></tspan></text>
    <text transform="translate(79 125) scale(0.46 0.46)" class="cls-8"><tspan class="cls-9"></tspan></text>
    <text transform="translate(9 125) scale(0.46 0.46)" class="cls-8"><tspan class="cls-11"></tspan></text>
    <text transform="translate(43 155) scale(0.46 0.46)" class="cls-8"><tspan class="cls-10"></tspan></text>
    <text transform="translate(34 155) scale(0.46 0.46)" class="cls-8"><tspan class="cls-9"></tspan></text>
    <text transform="translate(73 155) scale(0.46 0.46)" class="cls-8"><tspan class="cls-9"></tspan></text>
    <text transform="translate(9 155) scale(0.46 0.46)" class="cls-8"><tspan class="cls-11"></tspan></text>
    <text transform="translate(49 170) scale(0.46 0.46)" class="cls-8"><tspan class="cls-10"></tspan></text>
    <text transform="translate(34 170) scale(0.46 0.46)" class="cls-8"><tspan class="cls-9"></tspan></text>
    <text transform="translate(79 170) scale(0.46 0.46)" class="cls-8"><tspan class="cls-9"></tspan></text>
    <text transform="translate(9 170) scale(0.46 0.46)" class="cls-8"><tspan class="cls-11"></tspan></text>
    <text transform="translate(9 140) scale(0.46 0.46)" class="cls-8"><tspan class="cls-11"></tspan></text>
    <text transform="translate(9 184) scale(0.46 0.46)" class="cls-8"><tspan class="cls-11"></tspan></text>
    <path d="M148.853,13.901 L146.752,15.998 L148.853,18.096 L148.853,18.096 C148.949,18.192 149.008,18.324 149.008,18.470 C149.008,18.763 148.771,19.000 148.478,19.000 C148.331,19.000 148.199,18.941 148.103,18.845 L148.103,18.845 L146.002,16.747 L143.902,18.845 L143.902,18.845 C143.806,18.941 143.673,19.000 143.527,19.000 C143.234,19.000 142.996,18.763 142.996,18.470 C142.996,18.324 143.055,18.192 143.151,18.096 L143.151,18.096 L145.252,15.998 L143.151,13.901 L143.151,13.901 C143.055,13.805 142.996,13.673 142.996,13.526 C142.996,13.234 143.234,12.997 143.527,12.997 C143.673,12.997 143.806,13.056 143.902,13.152 L143.902,13.152 L146.002,15.249 L148.103,13.152 L148.103,13.152 C148.199,13.056 148.331,12.997 148.478,12.997 C148.771,12.997 149.008,13.234 149.008,13.526 C149.008,13.673 148.949,13.805 148.853,13.901 L148.853,13.901 Z" class="cls-15" />
</svg>

