<?xml version="1.0" encoding="UTF-8" standalone="no" ?>
<svg xmlns="http://www.w3.org/2000/svg" xmlns:xlink="http://www.w3.org/1999/xlink" preserveAspectRatio="xMidYMid" width="800" height="500" viewBox="0 0 800 500">
    <defs>
        <style>
            .cls-1, .cls-13, .cls-19, .cls-9 {
                fill: #fff;
            }

            .cls-2 {
                fill: #d3d3d3;
            }

            .cls-10, .cls-11, .cls-12, .cls-13, .cls-14, .cls-2, .cls-20, .cls-21, .cls-22, .cls-3, .cls-4, .cls-6, .cls-7, .cls-9 {
                fill-rule: evenodd;
            }

            .cls-3 {
                fill: #9b9b9b;
            }

            .cls-4 {
                fill: #d7d7d7;
                filter: url(#drop-shadow-1);
            }

            .cls-22, .cls-5 {
                fill: #146ad1;
            }

            .cls-16, .cls-18, .cls-6 {
                fill: #202020;
            }

            .cls-7 {
                fill: #fc615d;
                stroke: #e13e3a;
            }

            .cls-10, .cls-14, .cls-7, .cls-8, .cls-9 {
                stroke-linejoin: round;
                stroke-width: 1px;
            }

            .cls-8 {
                fill: #d1d1d1;
                stroke: #b5b4b4;
            }

            .cls-14, .cls-9 {
                stroke: #bfbfbf;
            }

            .cls-10 {
                fill: #34c84a;
                stroke: #22a936;
            }

            .cls-11 {
                fill: #535353;
            }

            .cls-12 {
                fill: #9a9a9a;
            }

            .cls-14 {
                fill: #eaeaea;
            }

            .cls-15, .cls-16 {
                font-size: 36px;
            }

            .cls-16, .cls-18, .cls-19, .cls-23, .cls-25, .cls-27, .cls-29, .cls-30 {
                text-anchor: middle;
                font-family: "Arial";
            }

            .cls-17, .cls-18, .cls-19, .cls-23, .cls-30 {
                font-size: 31.805px;
            }

            .cls-20 {
                fill: #454545;
            }

            .cls-21 {
                fill: #dcdcdc;
            }

            .cls-23 {
                fill: #acacac;
            }

            .cls-24, .cls-25 {
                font-size: 25.6px;
            }

            .cls-25, .cls-27, .cls-29 {
                fill: #434343;
            }

            .cls-26, .cls-27 {
                font-size: 28.8px;
            }

            .cls-28, .cls-29 {
                font-size: 19.2px;
            }

            .cls-30 {
                fill: #949494;
            }
        </style>

        <filter id="drop-shadow-1" filterUnits="userSpaceOnUse">
            <feOffset dy="1" in="SourceAlpha" />
            <feGaussianBlur stdDeviation="1.414" result="dropBlur" />
            <feFlood flood-opacity="0.2" />
            <feComposite operator="in" in2="dropBlur" result="dropShadowComp" />
            <feComposite in="SourceGraphic" result="shadowed" />
        </filter>
    </defs>
    <rect width="800" height="500" class="cls-1" />
    <path d="M0.000,13.438 L0.000,-0.000 L800.000,-0.000 L800.000,13.438 L0.000,13.438 Z" class="cls-2" />
    <path d="M-0.000,37.180 L161.883,37.180 L161.883,500.000 L-0.000,500.000 L-0.000,37.180 Z" class="cls-2" />
    <path d="M161.875,35.313 L162.500,35.313 L162.500,500.000 L161.875,500.000 L161.875,35.313 Z" class="cls-3" />
    <path d="M637.500,35.313 L638.125,35.313 L638.125,500.000 L637.500,500.000 L637.500,35.313 Z" class="cls-3" />
    <path d="M638.133,37.180 L800.000,37.180 L800.000,337.503 L638.133,337.503 L638.133,37.180 Z" class="cls-2" />
    <rect x="638.125" y="337.5" width="161.875" height="162.5" class="cls-1" />
    <path d="M0.000,38.125 L0.000,13.750 L800.000,13.750 L800.000,38.125 L0.000,38.125 Z" class="cls-4" />
    <rect x="261.875" width="43.75" height="13.438" class="cls-5" />
    <path d="M19.496,6.564 C19.510,8.077 20.921,8.580 20.938,8.587 C20.925,8.621 20.712,9.304 20.193,10.010 C19.745,10.619 19.281,11.225 18.549,11.238 C17.829,11.250 17.598,10.841 16.775,10.841 C15.952,10.841 15.695,11.225 15.014,11.250 C14.308,11.276 13.770,10.593 13.318,9.985 C12.395,8.743 11.690,6.476 12.637,4.945 C13.107,4.185 13.948,3.704 14.860,3.691 C15.554,3.679 16.210,4.127 16.633,4.127 C17.058,4.127 17.854,3.589 18.691,3.668 C19.041,3.681 20.025,3.799 20.656,4.659 C20.606,4.689 19.482,5.297 19.496,6.564 ZM16.548,3.554 C16.467,2.979 16.771,2.381 17.119,2.006 C17.507,1.583 18.161,1.269 18.702,1.249 C18.771,1.835 18.517,2.423 18.142,2.846 C17.767,3.268 17.152,3.598 16.548,3.554 Z" class="cls-6" />
    <path d="M11.883,21.872 C13.954,21.872 15.633,23.550 15.633,25.620 C15.633,27.690 13.954,29.368 11.883,29.368 C9.812,29.368 8.133,27.690 8.133,25.620 C8.133,23.550 9.812,21.872 11.883,21.872 Z" class="cls-7" />
    <circle cx="24.375" cy="25.625" r="3.75" class="cls-8" />
    <path d="M378.758,18.440 L524.692,18.440 C526.418,18.440 527.817,19.839 527.817,21.565 L527.817,29.691 C527.817,31.417 526.418,32.816 524.692,32.816 L378.758,32.816 C377.032,32.816 375.633,31.417 375.633,29.691 L375.633,21.565 C375.633,19.839 377.032,18.440 378.758,18.440 Z" class="cls-9" />
    <path d="M741.558,18.440 L790.625,18.440 C792.351,18.440 793.750,19.839 793.750,21.565 L793.750,29.691 C793.750,31.417 792.351,32.816 790.625,32.816 L741.558,32.816 C739.832,32.816 738.433,31.417 738.433,29.691 L738.433,21.565 C738.433,19.839 739.832,18.440 741.558,18.440 Z" class="cls-9" />
    <path d="M681.258,18.440 L730.308,18.440 C732.034,18.440 733.433,19.839 733.433,21.565 L733.433,29.691 C733.433,31.417 732.034,32.816 730.308,32.816 L681.258,32.816 C679.532,32.816 678.133,31.417 678.133,29.691 L678.133,21.565 C678.133,19.839 679.532,18.440 681.258,18.440 Z" class="cls-9" />
    <path d="M36.883,21.872 C38.954,21.872 40.633,23.550 40.633,25.620 C40.633,27.690 38.954,29.368 36.883,29.368 C34.812,29.368 33.133,27.690 33.133,25.620 C33.133,23.550 34.812,21.872 36.883,21.872 Z" class="cls-10" />
    <path d="M784.219,7.344 L777.969,7.344 C777.969,7.344 777.969,7.344 777.969,7.344 C777.710,7.344 777.500,7.134 777.500,6.875 C777.500,6.616 777.710,6.406 777.969,6.406 C777.969,6.406 777.969,6.406 777.969,6.406 L784.219,6.406 C784.478,6.406 784.688,6.616 784.688,6.875 C784.688,7.134 784.478,7.344 784.219,7.344 ZM785.781,4.844 L777.969,4.844 L777.969,4.844 C777.710,4.844 777.500,4.634 777.500,4.375 C777.500,4.116 777.710,3.906 777.969,3.906 C777.969,3.906 777.969,3.906 777.969,3.906 L785.781,3.906 C786.040,3.906 786.250,4.116 786.250,4.375 C786.250,4.634 786.040,4.844 785.781,4.844 ZM776.094,9.844 L776.094,9.844 L775.156,9.844 C774.897,9.844 774.688,9.634 774.688,9.375 C774.688,9.116 774.897,8.906 775.156,8.906 L776.094,8.906 C776.094,8.906 776.094,8.906 776.094,8.906 C776.353,8.906 776.563,9.116 776.563,9.375 C776.563,9.634 776.353,9.844 776.094,9.844 ZM776.094,7.344 C776.094,7.344 776.094,7.344 776.094,7.344 L775.156,7.344 C774.897,7.344 774.688,7.134 774.688,6.875 C774.688,6.616 774.897,6.406 775.156,6.406 L776.093,6.406 C776.094,6.406 776.094,6.406 776.094,6.406 C776.353,6.406 776.563,6.616 776.563,6.875 C776.563,7.134 776.353,7.344 776.094,7.344 ZM776.094,4.844 L776.094,4.844 L775.156,4.844 C774.897,4.844 774.688,4.634 774.688,4.375 C774.688,4.116 774.897,3.906 775.156,3.906 L776.094,3.906 C776.094,3.906 776.094,3.906 776.094,3.906 C776.353,3.906 776.563,4.116 776.563,4.375 C776.563,4.634 776.353,4.844 776.094,4.844 ZM777.969,9.844 C777.710,9.844 777.500,9.634 777.500,9.375 C777.500,9.116 777.710,8.906 777.969,8.906 C777.969,8.906 777.969,8.906 777.969,8.906 L785.781,8.906 C786.040,8.906 786.250,9.116 786.250,9.375 C786.250,9.634 786.040,9.844 785.781,9.844 L777.969,9.844 L777.969,9.844 Z" class="cls-6" />
    <path d="M765.038,10.587 C765.208,10.757 765.313,10.991 765.313,11.250 C765.313,11.768 764.893,12.188 764.375,12.188 C764.116,12.188 763.882,12.083 763.712,11.913 L763.712,11.913 L760.965,9.165 C760.406,9.495 759.758,9.688 759.063,9.688 C756.991,9.688 755.313,8.009 755.313,5.938 C755.313,3.867 756.991,2.188 759.063,2.188 C761.134,2.188 762.813,3.867 762.813,5.938 C762.813,6.633 762.620,7.281 762.290,7.840 L765.038,10.587 L765.038,10.587 ZM759.063,3.125 C757.509,3.125 756.250,4.384 756.250,5.938 C756.250,7.491 757.509,8.750 759.063,8.750 C760.616,8.750 761.875,7.491 761.875,5.938 C761.875,4.384 760.616,3.125 759.063,3.125 Z" class="cls-6" />
    <path d="M0.000,13.750 L0.000,13.438 L800.000,13.438 L800.000,13.750 L0.000,13.750 Z" class="cls-11" />
    <path d="M0.000,0.312 L0.000,0.000 L800.000,0.000 L800.000,0.312 L0.000,0.312 Z" class="cls-3" />
    <path d="M0.000,38.437 L0.000,38.125 L800.000,38.125 L800.000,38.437 L0.000,38.437 Z" class="cls-12" />
    <path d="M0.000,14.062 L0.000,13.750 L800.000,13.750 L800.000,14.062 L0.000,14.062 Z" class="cls-13" />
    <path d="M381.875,13.674 L381.875,200.625 C381.875,202.351 380.476,203.750 378.750,203.750 L264.688,203.750 C262.962,203.750 261.562,202.351 261.562,200.625 L261.562,13.674 L381.875,13.674 Z" class="cls-14" />
    <text transform="translate(47 10) scale(0.28)" class="cls-15"><tspan x="0" class="cls-16">Xcode</tspan></text>
    <text transform="translate(80 10) scale(0.28)" class="cls-17"><tspan x="0" class="cls-18">File</tspan></text>
    <text transform="translate(106 10) scale(0.28)" class="cls-17"><tspan x="0" class="cls-18">Edit</tspan></text>
    <text transform="translate(135 10) scale(0.28)" class="cls-17"><tspan x="0" class="cls-18">View</tspan></text>
    <text transform="translate(165 10) scale(0.28)" class="cls-17"><tspan x="0" class="cls-18">Find</tspan></text>
    <text transform="translate(203 10) scale(0.28)" class="cls-17"><tspan x="0" class="cls-18">Navigate</tspan></text>
    <text transform="translate(244 10) scale(0.28)" class="cls-17"><tspan x="0" class="cls-18">Editor</tspan></text>
    <text transform="translate(325 10) scale(0.28)" class="cls-17"><tspan x="0" class="cls-18">Debug</tspan></text>
    <text transform="translate(284 10) scale(0.28)" class="cls-17"><tspan x="0" class="cls-19">Product</tspan></text>
    <text transform="translate(380 10) scale(0.28)" class="cls-17"><tspan x="0" class="cls-18">Source Control</tspan></text>
    <text transform="translate(438 10) scale(0.28)" class="cls-17"><tspan x="0" class="cls-18">Window</tspan></text>
    <text transform="translate(477 10) scale(0.27 0.27)" class="cls-17"><tspan x="0" class="cls-18">Help</tspan></text>
    <path d="M51.875,18.440 L68.758,18.440 C70.484,18.440 71.883,19.839 71.883,21.565 L71.883,29.691 C71.883,31.417 70.484,32.816 68.758,32.816 L51.875,32.816 C50.149,32.816 48.750,31.417 48.750,29.691 L48.750,21.565 C48.750,19.839 50.149,18.440 51.875,18.440 Z" class="cls-9" />
    <path d="M80.008,18.440 L96.875,18.440 C98.601,18.440 100.000,19.839 100.000,21.565 L100.000,29.691 C100.000,31.417 98.601,32.816 96.875,32.816 L80.008,32.816 C78.282,32.816 76.883,31.417 76.883,29.691 L76.883,21.565 C76.883,19.839 78.282,18.440 80.008,18.440 Z" class="cls-9" />
    <path d="M107.808,18.440 L253.758,18.440 C255.484,18.440 256.883,19.839 256.883,21.565 L256.883,29.691 C256.883,31.417 255.484,32.816 253.758,32.816 L107.808,32.816 C106.082,32.816 104.683,31.417 104.683,29.691 L104.683,21.565 C104.683,19.839 106.082,18.440 107.808,18.440 Z" class="cls-9" />
    <path d="M63.429,25.781 L57.186,29.374 L57.186,22.189 L63.429,25.781 Z" class="cls-12" />
    <path d="M12.994,48.000 L8.999,50.999 L8.999,45.001 L12.994,48.000 Z" class="cls-20" />
    <path d="M12.994,60.000 L8.999,62.999 L8.999,57.001 L12.994,60.000 Z" class="cls-20" />
    <path d="M262.188,185.625 L262.188,184.688 L381.250,184.688 L381.250,185.625 L262.188,185.625 Z" class="cls-21" />
    <path d="M262.188,154.079 L262.188,153.142 L381.250,153.142 L381.250,154.079 L262.188,154.079 Z" class="cls-21" />
    <path d="M262.188,111.289 L262.188,110.352 L381.250,110.352 L381.250,111.289 L262.188,111.289 Z" class="cls-21" />
    <path d="M262.188,126.868 L262.188,111.251 L381.250,111.251 L381.250,126.868 L262.188,126.868 Z" class="cls-22" />
    <path d="M262.188,79.742 L262.188,78.805 L381.250,78.805 L381.250,79.742 L262.188,79.742 Z" class="cls-21" />
    <path d="M85.083,22.188 L91.883,22.188 L91.883,29.101 L85.083,29.101 L85.083,22.188 Z" class="cls-12" />
    <text transform="translate(282 25) scale(0.31)" class="cls-17"><tspan x="0" class="cls-23">Run</tspan></text>
    <text transform="translate(282 37) scale(0.31)" class="cls-17"><tspan x="0" class="cls-23">Test</tspan></text>
    <text transform="translate(287 49) scale(0.31)" class="cls-17"><tspan x="0" class="cls-23">Profile</tspan></text>
    <text transform="translate(58 51) scale(0.31)" class="cls-24"><tspan x="0" class="cls-25">D7SMS</tspan></text>
    <text transform="translate(713 375) scale(0.31)" class="cls-26"><tspan x="0" class="cls-27">Cocoa Touch Class</tspan></text>
    <text transform="translate(690 385) scale(0.31)" class="cls-28"><tspan x="0" class="cls-29">Touch class</tspan></text>
    <text transform="translate(712 418) scale(0.31)" class="cls-26"><tspan x="0" class="cls-27">UI Test Case Class</tspan></text>
    <text transform="translate(707 428) scale(0.31)" class="cls-28"><tspan x="0" class="cls-29">implementing a unit test</tspan></text>
    <text transform="translate(716 462) scale(0.31)" class="cls-26"><tspan x="0" class="cls-27">Unit Test Case Class</tspan></text>
    <text transform="translate(707 472) scale(0.31)" class="cls-28"><tspan x="0" class="cls-29">implementing a unit test</tspan></text>
    <text transform="translate(30 63) scale(0.31)" class="cls-24"><tspan x="0" class="cls-25">Pods</tspan></text>
    <text transform="translate(290 61) scale(0.31)" class="cls-17"><tspan x="0" class="cls-23">Analyze</tspan></text>
    <text transform="translate(289 73) scale(0.31)" class="cls-17"><tspan x="0" class="cls-23">Archive</tspan></text>
    <text transform="translate(292 92) scale(0.31)" class="cls-17"><tspan x="0" class="cls-23">Build For</tspan></text>
    <text transform="translate(305 104) scale(0.31)" class="cls-17"><tspan x="0" class="cls-23">Perform Action</tspan></text>
    <text transform="translate(284 123) scale(0.31)" class="cls-17"><tspan x="0" class="cls-19">Build</tspan></text>
    <text transform="translate(285 136) scale(0.31)" class="cls-17"><tspan x="0" class="cls-23">Clean</tspan></text>
    <text transform="translate(283 147) scale(0.31)" class="cls-17"><tspan x="0" class="cls-23">Stop</tspan></text>
    <text transform="translate(290 166) scale(0.31)" class="cls-17"><tspan x="0" class="cls-23">Scheme</tspan></text>
    <text transform="translate(297 178) scale(0.31)" class="cls-17"><tspan x="0" class="cls-23">Destination</tspan></text>
    <text transform="translate(298 197) scale(0.31)" class="cls-17"><tspan x="0" class="cls-23">Create Bot...</tspan></text>
    <text transform="translate(398 275) scale(0.31)" class="cls-17"><tspan x="0" class="cls-23">No Editor</tspan></text>
    <text transform="translate(719 185) scale(0.31)" class="cls-17"><tspan x="0" class="cls-30">No Selection</tspan></text>
    <path d="M637.812,337.500 L637.812,336.875 L800.000,336.875 L800.000,337.500 L637.812,337.500 Z" class="cls-3" />
    <path d="M637.812,356.563 L637.812,355.937 L800.000,355.937 L800.000,356.563 L637.812,356.563 Z" class="cls-3" />
    <path d="M637.812,486.563 L637.812,485.937 L800.000,485.937 L800.000,486.563 L637.812,486.563 Z" class="cls-3" />
    <path d="M637.812,397.813 L637.812,397.187 L800.000,397.187 L800.000,397.813 L637.812,397.813 Z" class="cls-3" />
    <path d="M637.812,441.875 L637.812,441.250 L800.000,441.250 L800.000,441.875 L637.812,441.875 Z" class="cls-3" />
    <path d="M-0.000,-0.000 L0.625,-0.000 L0.625,500.000 L-0.000,500.000 L-0.000,-0.000 Z" class="cls-3" />
    <path d="M799.375,-0.000 L800.000,-0.000 L800.000,500.000 L799.375,500.000 L799.375,-0.000 Z" class="cls-3" />
    <path d="M799.688,499.375 L799.688,500.000 L-0.000,500.000 L-0.000,499.375 L799.688,499.375 Z" class="cls-3" />
</svg>
