<?xml version="1.0" encoding="UTF-8" standalone="no" ?>
<svg xmlns="http://www.w3.org/2000/svg" xmlns:xlink="http://www.w3.org/1999/xlink" preserveAspectRatio="xMidYMid" width="829" height="625" viewBox="0 0 829 625">
    <defs>
        <style>
            .cls-1 {
            fill: #e1e6f6;
            stroke: #ababab;
            }

            .cls-1, .cls-15, .cls-4, .cls-5, .cls-6 {
            stroke-linejoin: round;
            stroke-width: 1px;
            }

            .cls-2, .cls-5 {
            fill: #fff;
            }

            .cls-3 {
            fill: #aac3dd;
            }

            .cls-4 {
            fill: #f0f3fb;
            }

            .cls-4, .cls-5, .cls-6 {
            stroke: #ccc;
            }

            .cls-12, .cls-13, .cls-14, .cls-15, .cls-16, .cls-21, .cls-4, .cls-5, .cls-6 {
            fill-rule: evenodd;
            }

            .cls-6 {
            fill: #f4f6fc;
            }

            .cls-7 {
            fill: #9dc7f2;
            }

            .cls-8 {
            fill: #ebebeb;
            }

            .cls-10, .cls-11, .cls-9 {
            font-size: 13.333px;
            }

            .cls-10 {
            fill: #161616;
            }

            .cls-10, .cls-11 {
            font-family: "Myriad Pro";
            }

            .cls-11, .cls-13 {
            fill: #acacac;
            }

            .cls-12 {
            fill: #404040;
            }

            .cls-14 {
            fill: #999;
            }

            .cls-15 {
            fill: #f6f6f6;
            stroke: #d1d2de;
            }

            .cls-16 {
            fill: #7fb1e4;
            }

            .cls-17, .cls-18, .cls-19, .cls-20 {
            font-size: 35.857px;
            }

            .cls-18 {
            fill: #cdcdd1;
            }

            .cls-18, .cls-19, .cls-20 {
            font-family: "Open Sans";
            }

            .cls-19 {
            fill: #282828;
            }

            .cls-20 {
            fill: #242424;
            }

            .cls-21 {
            fill: #cacace;
            }
        </style>
    </defs>
    <rect width="828" height="624" class="cls-1" />
    <rect y="1" width="828" height="42" class="cls-2" />
    <rect y="45" width="828" height="30" class="cls-3" />
    <path d="M457.000,115.000 L457.000,84.000 C457.000,80.686 454.314,78.000 451.000,78.000 L7.000,78.000 C3.686,78.000 1.000,80.686 1.000,84.000 L1.000,115.000 C1.000,115.000 3.686,115.000 7.000,115.000 " class="cls-4" />
    <path d="M827.000,623.000 L827.000,103.000 L461.000,103.000 L461.000,623.000 C461.000,623.000 463.686,623.000 467.000,623.000 " class="cls-5" />
    <path d="M827.000,104.000 L827.000,84.000 C827.000,80.686 824.314,78.000 821.000,78.000 L467.000,78.000 C463.686,78.000 461.000,80.686 461.000,84.000 L461.000,104.000 L827.000,104.000 Z" class="cls-6" />
    <path d="M457.000,623.000 L457.000,103.539 L134.000,103.000 L134.000,86.000 C134.000,86.000 134.141,80.451 132.000,79.000 C129.720,77.454 125.150,78.000 125.150,78.000 L7.000,78.000 C3.686,78.000 1.000,80.686 1.000,84.000 L1.000,623.000 C1.000,623.000 3.686,623.000 7.000,623.000 " class="cls-5" />
    <rect x="32" y="235" width="35" height="14" class="cls-7" />
    <rect x="46" y="51" width="15" height="15" rx="1" ry="1" class="cls-8" />
    <rect x="9" y="51" width="15" height="15" rx="1" ry="1" class="cls-8" />
    <rect x="68" y="51" width="15" height="15" rx="1" ry="1" class="cls-8" />
    <rect x="98" y="51" width="15" height="15" rx="1" ry="1" class="cls-8" />
    <rect x="319" y="51" width="15" height="15" rx="1" ry="1" class="cls-8" />
    <rect x="358" y="51" width="15" height="15" rx="1" ry="1" class="cls-8" />
    <rect x="397" y="51" width="15" height="15" rx="1" ry="1" class="cls-8" />
    <rect x="464" y="51" width="15" height="15" rx="1" ry="1" class="cls-8" />
    <rect x="506" y="51" width="15" height="15" rx="1" ry="1" class="cls-8" />
    <rect x="542" y="51" width="15" height="15" rx="1" ry="1" class="cls-8" />
    <rect x="605" y="51" width="15" height="15" rx="1" ry="1" class="cls-8" />
    <rect x="645" y="51" width="15" height="15" rx="1" ry="1" class="cls-8" />
    <text x="22" y="17" class="cls-9"><tspan class="cls-10">workspaceNeon - Go - Eclipse</tspan></text>
    <text x="5" y="37" class="cls-9"><tspan class="cls-10">File</tspan></text>
    <text x="37" y="37" class="cls-9"><tspan class="cls-10">Edit</tspan></text>
    <text x="73" y="37" class="cls-9"><tspan class="cls-10">Navigate</tspan></text>
    <text x="131" y="37" class="cls-9"><tspan class="cls-10">Search</tspan></text>
    <text x="181" y="37" class="cls-9"><tspan class="cls-10">Project</tspan></text>
    <text x="232" y="37" class="cls-9"><tspan class="cls-10">Run</tspan></text>
    <text x="268" y="37" class="cls-9"><tspan class="cls-10">Window</tspan></text>
    <text x="326" y="37" class="cls-9"><tspan class="cls-10">Help</tspan></text>
    <text transform="translate(41 117) scale(0.83 0.83)" class="cls-9"><tspan class="cls-10">d7sms_lib</tspan></text>
    <text x="27" y="96" class="cls-9"><tspan class="cls-10">Project Explorer</tspan></text>
    <text transform="translate(58 134) scale(0.83 0.83)" class="cls-9"><tspan class="cls-10">GOROOT</tspan></text>
    <text transform="translate(101 134) scale(0.83 0.83)" class="cls-9"><tspan class="cls-11"> - C:\PathToGoRoot\Go\src</tspan></text>
    <text transform="translate(99 149) scale(0.83 0.83)" class="cls-9"><tspan class="cls-11"> - C:\Users\Username\Desktop\GoLang\src</tspan></text>
    <text transform="translate(58 149) scale(0.83 0.83)" class="cls-9"><tspan class="cls-10">GOPATH</tspan></text>
    <text transform="translate(58 164) scale(0.83 0.83)" class="cls-9"><tspan class="cls-10">Build Targets</tspan></text>
    <text transform="translate(58 178) scale(0.83 0.83)" class="cls-9"><tspan class="cls-10">pkg</tspan></text>
    <text transform="translate(58 194) scale(0.83 0.83)" class="cls-9"><tspan class="cls-10">src</tspan></text>
    <text transform="translate(66 213) scale(0.83 0.83)" class="cls-9"><tspan class="cls-10">LICENSE</tspan></text>
    <text transform="translate(66 228) scale(0.83 0.83)" class="cls-9"><tspan class="cls-10">README.md</tspan></text>
    <path d="M17.517,113.326 L14.728,116.032 L11.902,113.290 L11.902,113.291 C11.806,113.201 11.676,113.146 11.532,113.146 C11.238,113.146 11.000,113.377 11.000,113.662 C11.000,113.801 11.057,113.928 11.149,114.021 L11.149,114.021 L14.343,117.120 L14.343,117.120 C14.440,117.217 14.576,117.278 14.726,117.278 C14.727,117.278 14.727,117.278 14.728,117.278 C14.728,117.278 14.728,117.278 14.729,117.278 C14.879,117.278 15.015,117.217 15.112,117.120 L15.112,117.120 L18.306,114.021 L18.305,114.019 C18.396,113.927 18.453,113.801 18.453,113.662 C18.453,113.377 18.214,113.146 17.920,113.146 C17.759,113.146 17.614,113.216 17.517,113.326 Z" class="cls-12" />
    <path d="M28.573,127.308 L31.283,130.093 L28.537,132.915 L28.537,132.915 C28.448,133.011 28.392,133.141 28.392,133.284 C28.392,133.578 28.624,133.816 28.910,133.816 C29.049,133.816 29.176,133.759 29.269,133.667 L29.269,133.667 L32.372,130.477 L32.372,130.477 C32.470,130.380 32.530,130.245 32.530,130.095 C32.530,130.094 32.530,130.094 32.530,130.093 C32.530,130.093 32.530,130.093 32.530,130.092 C32.530,129.942 32.470,129.806 32.372,129.710 L32.372,129.709 L29.269,126.520 L29.267,126.521 C29.175,126.430 29.048,126.374 28.910,126.374 C28.624,126.374 28.392,126.612 28.392,126.905 C28.392,127.066 28.462,127.211 28.573,127.308 Z" class="cls-13" />
    <path d="M28.573,142.192 L31.283,144.977 L28.537,147.799 L28.537,147.799 C28.448,147.895 28.392,148.025 28.392,148.168 C28.392,148.462 28.624,148.700 28.910,148.700 C29.049,148.700 29.176,148.643 29.269,148.551 L29.269,148.551 L32.372,145.361 L32.372,145.361 C32.470,145.264 32.530,145.129 32.530,144.979 C32.530,144.978 32.530,144.978 32.530,144.977 C32.530,144.977 32.530,144.977 32.530,144.976 C32.530,144.826 32.470,144.690 32.372,144.594 L32.372,144.594 L29.269,141.404 L29.267,141.405 C29.175,141.314 29.048,141.258 28.910,141.258 C28.624,141.258 28.392,141.496 28.392,141.789 C28.392,141.950 28.462,142.095 28.573,142.192 Z" class="cls-13" />
    <path d="M28.573,157.076 L31.283,159.861 L28.537,162.683 L28.537,162.683 C28.448,162.779 28.392,162.909 28.392,163.052 C28.392,163.346 28.624,163.584 28.910,163.584 C29.049,163.584 29.176,163.527 29.269,163.435 L29.269,163.435 L32.372,160.245 L32.372,160.245 C32.470,160.148 32.530,160.013 32.530,159.863 C32.530,159.862 32.530,159.862 32.530,159.861 C32.530,159.861 32.530,159.861 32.530,159.860 C32.530,159.710 32.470,159.574 32.372,159.478 L32.372,159.478 L29.269,156.288 L29.267,156.289 C29.175,156.198 29.048,156.142 28.910,156.142 C28.624,156.142 28.392,156.380 28.392,156.673 C28.392,156.834 28.462,156.979 28.573,157.076 Z" class="cls-13" />
    <path d="M28.573,171.960 L31.283,174.745 L28.537,177.567 L28.537,177.567 C28.448,177.663 28.392,177.793 28.392,177.936 C28.392,178.230 28.624,178.468 28.910,178.468 C29.049,178.468 29.176,178.411 29.269,178.319 L29.269,178.319 L32.372,175.129 L32.372,175.129 C32.470,175.032 32.530,174.897 32.530,174.747 C32.530,174.746 32.530,174.746 32.530,174.745 C32.530,174.745 32.530,174.745 32.530,174.744 C32.530,174.594 32.470,174.458 32.372,174.362 L32.372,174.362 L29.269,171.172 L29.267,171.173 C29.175,171.082 29.048,171.026 28.910,171.026 C28.624,171.026 28.392,171.264 28.392,171.557 C28.392,171.718 28.462,171.863 28.573,171.960 Z" class="cls-13" />
    <path d="M28.573,187.671 L31.283,190.456 L28.537,193.278 L28.537,193.278 C28.448,193.374 28.392,193.504 28.392,193.647 C28.392,193.940 28.624,194.179 28.910,194.179 C29.049,194.179 29.176,194.122 29.269,194.029 L29.269,194.030 L32.372,190.840 L32.372,190.840 C32.470,190.743 32.530,190.608 32.530,190.457 C32.530,190.457 32.530,190.457 32.530,190.456 C32.530,190.456 32.530,190.455 32.530,190.455 C32.530,190.305 32.470,190.169 32.372,190.073 L32.372,190.072 L29.269,186.883 L29.267,186.884 C29.175,186.793 29.048,186.737 28.910,186.737 C28.624,186.737 28.392,186.974 28.392,187.268 C28.392,187.429 28.462,187.574 28.573,187.671 Z" class="cls-13" />
    <text transform="translate(41 246) scale(0.83 0.83)" class="cls-9"><tspan class="cls-10">Test</tspan></text>
    <text transform="translate(58 263) scale(0.83 0.83)" class="cls-9"><tspan class="cls-10">GOROOT</tspan></text>
    <text transform="translate(101 263) scale(0.83 0.83)" class="cls-9"><tspan class="cls-11"> - C:\PathToGoRoot\Go\src</tspan></text>
    <text transform="translate(99 278) scale(0.83 0.83)" class="cls-9"><tspan class="cls-11"> - C:\Users\Username\Desktop\GoLang\src</tspan></text>
    <text transform="translate(58 278) scale(0.83 0.83)" class="cls-9"><tspan class="cls-10">GOPATH</tspan></text>
    <text transform="translate(58 293) scale(0.83 0.83)" class="cls-9"><tspan class="cls-10">Build Targets</tspan></text>
    <text transform="translate(58 307) scale(0.83 0.83)" class="cls-9"><tspan class="cls-10">src</tspan></text>
    <path d="M17.517,242.320 L14.728,245.027 L11.902,242.285 L11.902,242.285 C11.806,242.196 11.676,242.140 11.532,242.140 C11.238,242.140 11.000,242.372 11.000,242.657 C11.000,242.796 11.057,242.922 11.149,243.015 L11.149,243.015 L14.343,246.114 L14.343,246.114 C14.440,246.212 14.576,246.272 14.726,246.272 C14.727,246.272 14.727,246.272 14.728,246.272 C14.728,246.272 14.728,246.272 14.729,246.272 C14.879,246.272 15.015,246.212 15.112,246.114 L15.112,246.114 L18.306,243.015 L18.305,243.014 C18.396,242.921 18.453,242.796 18.453,242.657 C18.453,242.372 18.214,242.140 17.920,242.140 C17.759,242.140 17.614,242.210 17.517,242.320 Z" class="cls-12" />
    <path d="M28.573,257.130 L31.283,259.915 L28.537,262.736 L28.537,262.737 C28.448,262.832 28.392,262.962 28.392,263.106 C28.392,263.399 28.624,263.637 28.910,263.637 C29.049,263.637 29.176,263.580 29.269,263.488 L29.269,263.488 L32.372,260.299 L32.372,260.299 C32.470,260.202 32.530,260.066 32.530,259.916 C32.530,259.916 32.530,259.915 32.530,259.915 C32.530,259.915 32.530,259.914 32.530,259.914 C32.530,259.764 32.470,259.628 32.372,259.531 L32.372,259.531 L29.269,256.342 L29.267,256.343 C29.175,256.251 29.048,256.195 28.910,256.195 C28.624,256.195 28.392,256.433 28.392,256.727 C28.392,256.888 28.462,257.032 28.573,257.130 Z" class="cls-13" />
    <path d="M28.573,272.014 L31.283,274.799 L28.537,277.620 L28.537,277.621 C28.448,277.716 28.392,277.846 28.392,277.990 C28.392,278.283 28.624,278.521 28.910,278.521 C29.049,278.521 29.176,278.464 29.269,278.372 L29.269,278.372 L32.372,275.183 L32.372,275.183 C32.470,275.086 32.530,274.950 32.530,274.800 C32.530,274.800 32.530,274.799 32.530,274.799 C32.530,274.799 32.530,274.798 32.530,274.798 C32.530,274.648 32.470,274.512 32.372,274.415 L32.372,274.415 L29.269,271.226 L29.267,271.227 C29.175,271.136 29.048,271.079 28.910,271.079 C28.624,271.079 28.392,271.317 28.392,271.611 C28.392,271.772 28.462,271.916 28.573,272.014 Z" class="cls-13" />
    <path d="M28.573,286.898 L31.283,289.683 L28.537,292.505 L28.537,292.505 C28.448,292.600 28.392,292.730 28.392,292.874 C28.392,293.167 28.624,293.405 28.910,293.405 C29.049,293.405 29.176,293.348 29.269,293.256 L29.269,293.256 L32.372,290.067 L32.372,290.067 C32.470,289.970 32.530,289.834 32.530,289.684 C32.530,289.684 32.530,289.683 32.530,289.683 C32.530,289.683 32.530,289.682 32.530,289.682 C32.530,289.532 32.470,289.396 32.372,289.299 L32.372,289.299 L29.269,286.110 L29.267,286.111 C29.175,286.020 29.048,285.963 28.910,285.963 C28.624,285.963 28.392,286.201 28.392,286.495 C28.392,286.656 28.462,286.800 28.573,286.898 Z" class="cls-13" />
    <path d="M33.124,302.161 L30.503,304.789 L27.848,302.127 L27.847,302.127 C27.757,302.040 27.635,301.986 27.500,301.986 C27.224,301.986 27.000,302.211 27.000,302.488 C27.000,302.623 27.054,302.746 27.140,302.836 L27.140,302.836 L30.142,305.846 L30.142,305.846 C30.233,305.940 30.361,305.999 30.502,305.999 C30.502,305.999 30.503,305.999 30.503,305.999 C30.504,305.999 30.504,305.999 30.504,305.999 C30.646,305.999 30.773,305.940 30.864,305.846 L30.864,305.846 L33.866,302.836 L33.865,302.835 C33.951,302.745 34.004,302.623 34.004,302.488 C34.004,302.211 33.780,301.986 33.504,301.986 C33.352,301.986 33.216,302.054 33.124,302.161 Z" class="cls-13" />
    <path d="M343.249,61.263 L340.495,56.493 L346.003,56.493 L343.249,61.263 Z" class="cls-14" />
    <path d="M381.249,61.263 L378.495,56.493 L384.003,56.493 L381.249,61.263 Z" class="cls-14" />
    <path d="M419.249,61.263 L416.495,56.493 L422.003,56.493 L419.249,61.263 Z" class="cls-14" />
    <path d="M486.249,61.263 L483.495,56.493 L489.003,56.493 L486.249,61.263 Z" class="cls-14" />
    <path d="M528.249,61.263 L525.495,56.493 L531.003,56.493 L528.249,61.263 Z" class="cls-14" />
    <path d="M566.249,61.263 L563.495,56.493 L569.003,56.493 L566.249,61.263 Z" class="cls-14" />
    <path d="M627.249,61.263 L624.495,56.493 L630.003,56.493 L627.249,61.263 Z" class="cls-14" />
    <path d="M666.249,61.263 L663.495,56.493 L669.003,56.493 L666.249,61.263 Z" class="cls-14" />
    <path d="M61.006,246.000 L246.070,246.000 L246.070,518.000 L61.424,518.000 " class="cls-15" />
    <path d="M62.000,502.000 L245.076,502.000 L245.076,516.750 L62.000,516.750 L62.000,502.000 Z" class="cls-16" />
    <text transform="translate(87 273) scale(0.22 0.22)" class="cls-17"><tspan class="cls-18">Go into</tspan></text>
    <text transform="translate(87 257) scale(0.22 0.22)" class="cls-17"><tspan class="cls-19">New</tspan></text>
    <text transform="translate(87 286) scale(0.22 0.22)" class="cls-17"><tspan class="cls-18">Copy</tspan></text>
    <text transform="translate(87 298) scale(0.22 0.22)" class="cls-17"><tspan class="cls-18">Paste</tspan></text>
    <text transform="translate(87 312) scale(0.22 0.22)" class="cls-17"><tspan class="cls-18">Delete</tspan></text>
    <text transform="translate(87 325) scale(0.22 0.22)" class="cls-17"><tspan class="cls-18">Remove from Context</tspan></text>
    <text transform="translate(87 338) scale(0.22 0.22)" class="cls-17"><tspan class="cls-18">Move...</tspan></text>
    <text transform="translate(87 352) scale(0.22 0.22)" class="cls-17"><tspan class="cls-18">Rename...</tspan></text>
    <text transform="translate(87 365) scale(0.22 0.22)" class="cls-17"><tspan class="cls-18">Import...</tspan></text>
    <text transform="translate(87 379) scale(0.22 0.22)" class="cls-17"><tspan class="cls-18">export...</tspan></text>
    <text transform="translate(87 391) scale(0.22 0.22)" class="cls-17"><tspan class="cls-18">Refresh</tspan></text>
    <text transform="translate(87 404) scale(0.22 0.22)" class="cls-17"><tspan class="cls-18">Validate</tspan></text>
    <text transform="translate(87 418) scale(0.22 0.22)" class="cls-17"><tspan class="cls-18">Run As</tspan></text>
    <text transform="translate(87 431) scale(0.22 0.22)" class="cls-17"><tspan class="cls-18">Debug As</tspan></text>
    <text transform="translate(87 444) scale(0.22 0.22)" class="cls-17"><tspan class="cls-18">Profile As</tspan></text>
    <text transform="translate(87 458) scale(0.22 0.22)" class="cls-17"><tspan class="cls-18">Restore from Local Hostory...</tspan></text>
    <text transform="translate(87 471) scale(0.22 0.22)" class="cls-17"><tspan class="cls-18">Team</tspan></text>
    <text transform="translate(87 485) scale(0.22 0.22)" class="cls-17"><tspan class="cls-18">Compare With</tspan></text>
    <text transform="translate(87 498) scale(0.22 0.22)" class="cls-17"><tspan class="cls-18">Source</tspan></text>
    <text transform="translate(87 511) scale(0.22 0.22)" class="cls-17"><tspan class="cls-20">Properties</tspan></text>
    <path d="M244.746,342.327 L244.746,342.998 L63.669,342.998 L63.669,342.327 L244.746,342.327 Z" class="cls-21" />
    <path d="M244.746,395.170 L244.746,395.840 L63.669,395.840 L63.669,395.170 L244.746,395.170 Z" class="cls-21" />
    <path d="M244.746,407.878 L244.746,408.549 L63.669,408.549 L63.669,407.878 L244.746,407.878 Z" class="cls-21" />
</svg>
