<?xml version="1.0" encoding="utf-8" standalone="no" ?>
<svg xmlns="http://www.w3.org/2000/svg" xmlns:xlink="http://www.w3.org/1999/xlink" preserveAspectRatio="xMidYMid" width="711" height="565" viewBox="0 0 711 565">
    <defs>
        <style>
            .cls-1, .cls-26 {
                fill: #f0f0f0;
            }

            .cls-1, .cls-8 {
                stroke: #ababab;
            }

            .cls-1, .cls-18, .cls-20, .cls-22, .cls-26, .cls-6, .cls-8, .cls-9 {
                stroke-linejoin: round;
                stroke-width: 1px;
            }

            .cls-2, .cls-20, .cls-22, .cls-9 {
                fill: #dbdbdb;
            }

            .cls-14, .cls-2, .cls-21, .cls-25, .cls-3, .cls-4, .cls-7 {
                fill-rule: evenodd;
            }

            .cls-3 {
                fill: #9a9a9a;
            }

            .cls-18, .cls-27, .cls-4, .cls-6, .cls-8 {
                fill: #fff;
            }

            .cls-5 {
                fill: #d1d1d1;
            }

            .cls-6 {
                stroke: #262626;
            }

            .cls-7 {
                fill: #3a3935;
            }

            .cls-9 {
                stroke: #b0b0b0;
            }

            .cls-10, .cls-11 {
                font-size: 13.333px;
            }

            .cls-11, .cls-13, .cls-14, .cls-17, .cls-24, .cls-30 {
                fill: #161616;
            }

            .cls-11, .cls-13, .cls-16, .cls-17, .cls-19 {
                font-family: "Myriad Pro";
            }

            .cls-12, .cls-13 {
                font-size: 16px;
            }

            .cls-15, .cls-16, .cls-17, .cls-19 {
                font-size: 12px;
            }

            .cls-16 {
                fill: #2881d4;
            }

            .cls-18 {
                stroke: #898989;
            }

            .cls-19 {
                fill: #898989;
            }

            .cls-20 {
                stroke: #7f7f7f;
            }

            .cls-21 {
                fill: #dcdcdc;
            }

            .cls-22 {
                stroke: #007acc;
            }

            .cls-23, .cls-24 {
                font-size: 32.869px;
            }

            .cls-24, .cls-30 {
                font-family: "Open Sans";
            }

            .cls-25 {
                fill: #acacac;
            }

            .cls-26 {
                stroke: #161616;
                filter: url(#drop-shadow-1);
            }

            .cls-28 {
                fill: #c3dbed;
            }

            .cls-29, .cls-30 {
                font-size: 30.684px;
            }
        </style>

        <filter id="drop-shadow-1" filterUnits="userSpaceOnUse">
            <feOffset dx="-2.598" dy="1.5" in="SourceAlpha" />
            <feGaussianBlur stdDeviation="2.646" result="dropBlur" />
            <feFlood flood-opacity="0.35" />
            <feComposite operator="in" in2="dropBlur" result="dropShadowComp" />
            <feComposite in="SourceGraphic" result="shadowed" />
        </filter>
    </defs>
    <rect x="2" y="2" width="708" height="494" class="cls-1" />
    <path d="M709.000,443.000 L709.000,444.000 L3.000,444.000 L3.000,443.000 L709.000,443.000 Z" class="cls-2" />
    <path d="M188.000,443.000 L187.000,443.000 L187.000,32.000 L188.000,32.000 L188.000,443.000 Z" class="cls-2" />
    <path d="M709.000,65.000 L709.000,66.000 L188.000,66.000 L188.000,65.000 L709.000,65.000 Z" class="cls-3" />
    <path d="M3.000,3.000 L709.000,3.000 L709.000,31.000 L187.225,31.000 L186.813,443.000 L3.000,443.000 L3.000,3.000 Z" class="cls-4" />
    <rect x="32" y="122" width="73" height="17" class="cls-5" />
    <path d="M198.000,109.000 L198.000,108.000 L697.000,108.000 L697.000,109.000 L198.000,109.000 Z" class="cls-3" />
    <path d="M198.000,110.000 L198.000,109.000 L697.000,109.000 L697.000,110.000 L198.000,110.000 Z" class="cls-4" />
    <path d="M198.000,67.000 L198.000,66.000 L697.000,66.000 L697.000,67.000 L198.000,67.000 Z" class="cls-4" />
    <rect x="205" y="207" width="15" height="15" class="cls-6" />
    <path d="M617.713,18.712 L613.089,18.712 L611.456,18.712 L606.831,18.712 C606.381,18.712 606.015,18.392 606.015,17.997 C606.015,17.603 606.381,17.283 606.831,17.283 L611.456,17.283 L613.089,17.283 L617.713,17.283 C618.164,17.283 618.530,17.603 618.530,17.997 C618.530,18.392 618.164,18.712 617.713,18.712 Z" class="cls-7" />
    <path d="M690.762,14.502 L687.362,17.997 L690.762,21.493 L690.762,21.493 C690.918,21.653 691.014,21.873 691.014,22.117 C691.014,22.605 690.629,23.000 690.155,23.000 C689.918,23.000 689.703,22.901 689.548,22.741 L689.548,22.741 L686.147,19.246 L682.747,22.741 L682.747,22.741 C682.591,22.901 682.376,23.000 682.139,23.000 C681.665,23.000 681.280,22.605 681.280,22.117 C681.280,21.873 681.377,21.653 681.532,21.493 L681.532,21.493 L684.933,17.997 L681.532,14.502 L681.532,14.502 C681.377,14.342 681.280,14.121 681.280,13.878 C681.280,13.390 681.665,12.995 682.139,12.995 C682.376,12.995 682.591,13.094 682.747,13.253 L682.747,13.253 L686.147,16.749 L689.548,13.253 L689.548,13.253 C689.703,13.094 689.918,12.995 690.155,12.995 C690.629,12.995 691.014,13.390 691.014,13.878 C691.014,14.121 690.918,14.342 690.762,14.502 L690.762,14.502 Z" class="cls-7" />
    <path d="M653.620,23.000 L644.799,23.000 C644.547,23.000 644.343,22.790 644.343,22.531 L644.343,13.464 C644.343,13.205 644.547,12.995 644.799,12.995 L653.620,12.995 C653.872,12.995 654.076,13.205 654.076,13.464 L654.076,22.531 C654.076,22.790 653.872,23.000 653.620,23.000 ZM653.164,13.933 L645.256,13.933 L645.256,22.062 L653.164,22.062 L653.164,13.933 Z" class="cls-7" />
    <rect x="269" y="139" width="342" height="22" class="cls-8" />
    <rect x="206" y="227" width="398" height="24" class="cls-8" />
    <rect x="611" y="227" width="79" height="24" class="cls-9" />
    <text x="23" y="22" class="cls-10"><tspan class="cls-11">Properties for Test</tspan></text>
    <text x="197" y="55" class="cls-12"><tspan class="cls-13">Go Compiler</tspan></text>
    <text x="209" y="155" class="cls-10"><tspan class="cls-11">Directory:</tspan></text>
    <text x="213" y="198" class="cls-10"><tspan class="cls-11">Eclipse GOPATH:</tspan></text>
    <text x="223" y="218" class="cls-10"><tspan class="cls-11">Use same value as the GOPATH environment variable.</tspan></text>
    <rect x="205" y="257" width="15" height="15" class="cls-6" />
    <path d="M217.770,262.413 L217.770,262.413 L211.746,268.758 L211.746,268.758 C211.604,268.907 211.407,269.000 211.190,269.000 C210.973,269.000 210.777,268.907 210.635,268.758 L210.635,268.758 L207.230,265.171 L207.230,265.171 C207.088,265.022 207.000,264.815 207.000,264.586 C207.000,264.129 207.352,263.759 207.786,263.759 C208.003,263.759 208.199,263.851 208.341,264.001 L208.341,264.001 L211.190,267.002 L216.659,261.242 L216.659,261.242 C216.801,261.093 216.997,261.000 217.214,261.000 C217.648,261.000 218.000,261.370 218.000,261.828 C218.000,262.056 217.912,262.263 217.770,262.413 Z" class="cls-14" />
    <text x="223" y="268" class="cls-10"><tspan class="cls-11">Also add project location to GOPATH, if it’s not contained there already.</tspan></text>
    <rect x="205" y="87" width="15" height="15" class="cls-6" />
    <path d="M217.770,92.413 L217.770,92.413 L211.746,98.758 L211.746,98.758 C211.604,98.907 211.407,99.000 211.190,99.000 C210.973,99.000 210.777,98.907 210.635,98.758 L210.635,98.758 L207.230,95.171 L207.230,95.171 C207.088,95.022 207.000,94.815 207.000,94.586 C207.000,94.129 207.352,93.759 207.786,93.759 C208.003,93.759 208.199,93.851 208.341,94.001 L208.341,94.001 L211.190,97.002 L216.659,91.242 L216.659,91.242 C216.801,91.093 216.997,91.000 217.214,91.000 C217.648,91.000 218.000,91.370 218.000,91.828 C218.000,92.056 217.912,92.263 217.770,92.413 Z" class="cls-14" />
    <text x="223" y="98" class="cls-10"><tspan class="cls-11">Use project specific settings</tspan></text>
    <text x="547" y="98" class="cls-15"><tspan class="cls-16">Configure workspace settings</tspan></text>
    <text x="213" y="243" class="cls-15"><tspan class="cls-17">C:\Users\Username\Desktop\GoLang</tspan></text>
    <text x="275" y="155" class="cls-15"><tspan class="cls-17">C:\PathToGo\Go</tspan></text>
    <rect x="11" y="40" width="165" height="22" class="cls-18" />
    <text x="17" y="54" class="cls-15"><tspan class="cls-19">type filter text</tspan></text>
    <text x="37" y="79" class="cls-15"><tspan class="cls-17">Resource</tspan></text>
    <text x="37" y="98" class="cls-15"><tspan class="cls-17">Builders</tspan></text>
    <text x="37" y="116" class="cls-15"><tspan class="cls-17">Go Build Targets</tspan></text>
    <text x="37" y="134" class="cls-15"><tspan class="cls-17">Go Compiler</tspan></text>
    <text x="37" y="153" class="cls-15"><tspan class="cls-17">Project References</tspan></text>
    <text x="37" y="172" class="cls-15"><tspan class="cls-17">Refactoring History</tspan></text>
    <text x="37" y="191" class="cls-15"><tspan class="cls-17">Run/Debug Settings</tspan></text>
    <text x="37" y="209" class="cls-15"><tspan class="cls-17">Task Repository</tspan></text>
    <text x="37" y="228" class="cls-15"><tspan class="cls-17">Task Tags</tspan></text>
    <text x="37" y="248" class="cls-15"><tspan class="cls-17">Validation</tspan></text>
    <text x="37" y="267" class="cls-15"><tspan class="cls-17">WIKI Text</tspan></text>
    <text x="620" y="244" class="cls-10"><tspan class="cls-11">Add Folder</tspan></text>
    <rect x="621" y="138" width="66" height="24" class="cls-9" />
    <text x="630" y="155" class="cls-10"><tspan class="cls-11">Browse...</tspan></text>
    <rect x="605.313" y="457.781" width="80.718" height="23.688" class="cls-20" />
    <path d="M696.000,281.000 L199.000,281.000 L198.000,281.000 L198.000,193.000 L199.000,193.000 L199.000,280.000 L696.000,280.000 L696.000,195.000 L314.000,195.000 L314.000,194.000 L697.000,194.000 L697.000,195.000 L697.000,281.000 L696.000,281.000 ZM206.000,192.000 L206.000,193.000 L199.000,193.000 L199.000,192.000 L206.000,192.000 Z" class="cls-21" />
    <text x="213" y="132" class="cls-10"><tspan class="cls-11">Go installations:</tspan></text>
    <path d="M696.000,172.000 L199.000,172.000 L198.000,172.000 L198.000,127.000 L199.000,127.000 L199.000,171.000 L696.000,171.000 L696.000,129.000 L314.000,129.000 L314.000,128.000 L697.000,128.000 L697.000,129.000 L697.000,172.000 L696.000,172.000 ZM206.000,126.000 L206.000,127.000 L199.000,127.000 L199.000,126.000 L206.000,126.000 Z" class="cls-21" />
    <rect x="518.188" y="457.781" width="80.656" height="23.688" class="cls-22" />
    <text transform="translate(550 474) scale(0.36 0.36)" class="cls-23"><tspan class="cls-24">OK</tspan></text>
    <text transform="translate(628 474) scale(0.36 0.36)" class="cls-23"><tspan class="cls-24">Cancel</tspan></text>
    <rect x="605.313" y="405.781" width="80.718" height="23.688" class="cls-20" />
    <text transform="translate(628 422) scale(0.36 0.36)" class="cls-23"><tspan class="cls-24">Apply</tspan></text>
    <rect x="498.313" y="405.781" width="100.718" height="23.688" class="cls-20" />
    <text transform="translate(505 422) scale(0.36 0.36)" class="cls-23"><tspan class="cls-24">Restore Default</tspan></text>
    <path d="M24.573,72.308 L27.283,75.093 L24.537,77.915 L24.537,77.915 C24.448,78.011 24.392,78.141 24.392,78.284 C24.392,78.578 24.624,78.816 24.910,78.816 C25.049,78.816 25.175,78.759 25.269,78.667 L25.269,78.667 L28.372,75.477 L28.372,75.477 C28.470,75.380 28.530,75.245 28.530,75.095 C28.530,75.094 28.530,75.094 28.530,75.093 C28.530,75.093 28.530,75.093 28.530,75.092 C28.530,74.942 28.470,74.806 28.372,74.710 L28.372,74.709 L25.269,71.520 L25.267,71.521 C25.174,71.430 25.048,71.374 24.910,71.374 C24.624,71.374 24.392,71.612 24.392,71.905 C24.392,72.066 24.462,72.211 24.573,72.308 Z" class="cls-25" />
    <path d="M24.573,202.308 L27.283,205.093 L24.537,207.915 L24.537,207.915 C24.448,208.011 24.392,208.141 24.392,208.284 C24.392,208.578 24.624,208.816 24.910,208.816 C25.049,208.816 25.175,208.759 25.269,208.666 L25.269,208.667 L28.372,205.477 L28.372,205.477 C28.470,205.380 28.530,205.245 28.530,205.095 C28.530,205.094 28.530,205.094 28.530,205.093 C28.530,205.093 28.530,205.093 28.530,205.092 C28.530,204.942 28.470,204.806 28.372,204.710 L28.372,204.709 L25.269,201.520 L25.267,201.521 C25.174,201.430 25.048,201.374 24.910,201.374 C24.624,201.374 24.392,201.612 24.392,201.905 C24.392,202.066 24.462,202.211 24.573,202.308 Z" class="cls-25" />
    <path d="M24.573,241.308 L27.283,244.093 L24.537,246.915 L24.537,246.915 C24.448,247.011 24.392,247.141 24.392,247.284 C24.392,247.578 24.624,247.816 24.910,247.816 C25.049,247.816 25.175,247.759 25.269,247.666 L25.269,247.667 L28.372,244.477 L28.372,244.477 C28.470,244.380 28.530,244.245 28.530,244.095 C28.530,244.094 28.530,244.094 28.530,244.093 C28.530,244.093 28.530,244.093 28.530,244.092 C28.530,243.942 28.470,243.806 28.372,243.710 L28.372,243.709 L25.269,240.520 L25.267,240.521 C25.174,240.430 25.048,240.374 24.910,240.374 C24.624,240.374 24.392,240.612 24.392,240.905 C24.392,241.066 24.462,241.211 24.573,241.308 Z" class="cls-25" />
    <g style="fill: #f0f0f0; filter: url(#drop-shadow-1)">
        <rect x="205" y="227" width="280" height="330" id="rect-1" style="stroke: inherit; filter: none; fill: inherit" class="cls-26" />
    </g>
    <use xlink:href="#rect-1" style="stroke: #161616; filter: none; fill: none" />
    <rect x="206" y="228" width="278" height="26" class="cls-27" />
    <rect x="219" y="305" width="252" height="179" class="cls-8" />
    <rect x="265" y="496" width="206" height="19" class="cls-8" />
    <rect x="401.5" y="528" width="68.5" height="20" class="cls-20" />
    <rect x="327.594" y="528" width="68.437" height="20" class="cls-22" />
    <text transform="translate(355 541) scale(0.31 0.3)" class="cls-23"><tspan class="cls-24">OK</tspan></text>
    <text transform="translate(271 508) scale(0.31 0.3)" class="cls-23"><tspan class="cls-24">D7SMS-GoLang</tspan></text>
    <text transform="translate(220 508) scale(0.31 0.3)" class="cls-23"><tspan class="cls-24">Folder:</tspan></text>
    <text transform="translate(220 245) scale(0.31 0.3)" class="cls-23"><tspan class="cls-24">Browse For Folder</tspan></text>
    <text transform="translate(226 322) scale(0.31 0.3)" class="cls-23"><tspan class="cls-24">Desktop</tspan></text>
    <text transform="translate(239 340) scale(0.31 0.3)" class="cls-23"><tspan class="cls-24">User</tspan></text>
    <text transform="translate(239 356) scale(0.31 0.3)" class="cls-23"><tspan class="cls-24">This PC</tspan></text>
    <rect x="237" y="413" width="93" height="18" class="cls-28" />
    <text transform="translate(239 372) scale(0.31 0.3)" class="cls-23"><tspan class="cls-24">Networks</tspan></text>
    <text transform="translate(239 388) scale(0.31 0.3)" class="cls-23"><tspan class="cls-24">Homegroup</tspan></text>
    <text transform="translate(239 406) scale(0.31 0.3)" class="cls-23"><tspan class="cls-24">Homegroup</tspan></text>
    <text transform="translate(239 425) scale(0.31 0.3)" class="cls-23"><tspan class="cls-24">D7SMS-GoLang</tspan></text>
    <text transform="translate(259 444) scale(0.31 0.3)" class="cls-23"><tspan class="cls-24">pkg</tspan></text>
    <text transform="translate(259 463) scale(0.31 0.3)" class="cls-23"><tspan class="cls-24">src</tspan></text>
    <text transform="translate(421 541) scale(0.31 0.3)" class="cls-23"><tspan class="cls-24">Cancel</tspan></text>
    <rect x="216.125" y="528" width="88.5" height="20" class="cls-20" />
    <text transform="translate(221 541) scale(0.31 0.3)" class="cls-29"><tspan class="cls-30">Make New Folder</tspan></text>
    <path d="M230.573,334.308 L233.283,337.093 L230.537,339.915 L230.537,339.915 C230.448,340.011 230.392,340.141 230.392,340.284 C230.392,340.578 230.624,340.816 230.910,340.816 C231.049,340.816 231.175,340.759 231.269,340.666 L231.269,340.667 L234.372,337.477 L234.372,337.477 C234.470,337.380 234.530,337.245 234.530,337.095 C234.530,337.094 234.530,337.094 234.530,337.093 C234.530,337.093 234.530,337.093 234.530,337.092 C234.530,336.942 234.470,336.806 234.372,336.710 L234.372,336.709 L231.269,333.520 L231.267,333.521 C231.174,333.430 231.048,333.374 230.910,333.374 C230.624,333.374 230.392,333.612 230.392,333.905 C230.392,334.066 230.462,334.211 230.573,334.308 Z" class="cls-25" />
    <path d="M230.573,350.308 L233.283,353.093 L230.537,355.915 L230.537,355.915 C230.448,356.011 230.392,356.141 230.392,356.284 C230.392,356.578 230.624,356.816 230.910,356.816 C231.049,356.816 231.175,356.759 231.269,356.666 L231.269,356.667 L234.372,353.477 L234.372,353.477 C234.470,353.380 234.530,353.245 234.530,353.095 C234.530,353.094 234.530,353.094 234.530,353.093 C234.530,353.093 234.530,353.093 234.530,353.092 C234.530,352.942 234.470,352.806 234.372,352.710 L234.372,352.709 L231.269,349.520 L231.267,349.521 C231.174,349.430 231.048,349.374 230.910,349.374 C230.624,349.374 230.392,349.612 230.392,349.905 C230.392,350.066 230.462,350.211 230.573,350.308 Z" class="cls-25" />
    <path d="M230.573,366.308 L233.283,369.093 L230.537,371.915 L230.537,371.915 C230.448,372.011 230.392,372.141 230.392,372.284 C230.392,372.578 230.624,372.816 230.910,372.816 C231.049,372.816 231.175,372.759 231.269,372.666 L231.269,372.667 L234.372,369.477 L234.372,369.477 C234.470,369.380 234.530,369.245 234.530,369.095 C234.530,369.094 234.530,369.094 234.530,369.093 C234.530,369.093 234.530,369.093 234.530,369.092 C234.530,368.942 234.470,368.806 234.372,368.710 L234.372,368.709 L231.269,365.520 L231.267,365.521 C231.174,365.430 231.048,365.374 230.910,365.374 C230.624,365.374 230.392,365.612 230.392,365.905 C230.392,366.066 230.462,366.211 230.573,366.308 Z" class="cls-25" />
    <path d="M230.573,382.308 L233.283,385.093 L230.537,387.915 L230.537,387.915 C230.448,388.011 230.392,388.141 230.392,388.284 C230.392,388.578 230.624,388.816 230.910,388.816 C231.049,388.816 231.175,388.759 231.269,388.666 L231.269,388.667 L234.372,385.477 L234.372,385.477 C234.470,385.380 234.530,385.245 234.530,385.095 C234.530,385.094 234.530,385.094 234.530,385.093 C234.530,385.093 234.530,385.093 234.530,385.092 C234.530,384.942 234.470,384.806 234.372,384.710 L234.372,384.709 L231.269,381.520 L231.267,381.521 C231.174,381.430 231.048,381.374 230.910,381.374 C230.624,381.374 230.392,381.612 230.392,381.905 C230.392,382.066 230.462,382.211 230.573,382.308 Z" class="cls-25" />
    <path d="M230.573,400.308 L233.283,403.093 L230.537,405.915 L230.537,405.915 C230.448,406.011 230.392,406.141 230.392,406.284 C230.392,406.578 230.624,406.816 230.910,406.816 C231.049,406.816 231.175,406.759 231.269,406.666 L231.269,406.667 L234.372,403.477 L234.372,403.477 C234.470,403.380 234.530,403.245 234.530,403.095 C234.530,403.094 234.530,403.094 234.530,403.093 C234.530,403.093 234.530,403.093 234.530,403.092 C234.530,402.942 234.470,402.806 234.372,402.710 L234.372,402.709 L231.269,399.520 L231.267,399.521 C231.174,399.430 231.048,399.374 230.910,399.374 C230.624,399.374 230.392,399.612 230.392,399.905 C230.392,400.066 230.462,400.211 230.573,400.308 Z" class="cls-25" />
    <path d="M248.573,439.308 L251.283,442.093 L248.537,444.915 L248.537,444.915 C248.448,445.011 248.392,445.141 248.392,445.284 C248.392,445.578 248.624,445.816 248.910,445.816 C249.049,445.816 249.175,445.759 249.269,445.666 L249.269,445.667 L252.372,442.477 L252.372,442.477 C252.470,442.380 252.530,442.245 252.530,442.095 C252.530,442.094 252.530,442.094 252.530,442.093 C252.530,442.093 252.530,442.093 252.530,442.092 C252.530,441.942 252.470,441.806 252.372,441.710 L252.372,441.709 L249.269,438.520 L249.267,438.521 C249.174,438.430 249.048,438.374 248.910,438.374 C248.624,438.374 248.392,438.612 248.392,438.905 C248.392,439.066 248.462,439.211 248.573,439.308 Z" class="cls-25" />
    <path d="M248.573,457.308 L251.283,460.093 L248.537,462.915 L248.537,462.915 C248.448,463.011 248.392,463.141 248.392,463.284 C248.392,463.578 248.624,463.816 248.910,463.816 C249.049,463.816 249.175,463.759 249.269,463.666 L249.269,463.667 L252.372,460.477 L252.372,460.477 C252.470,460.380 252.530,460.245 252.530,460.095 C252.530,460.094 252.530,460.094 252.530,460.093 C252.530,460.093 252.530,460.093 252.530,460.092 C252.530,459.942 252.470,459.806 252.372,459.710 L252.372,459.709 L249.269,456.520 L249.267,456.521 C249.174,456.430 249.048,456.374 248.910,456.374 C248.624,456.374 248.392,456.612 248.392,456.905 C248.392,457.066 248.462,457.211 248.573,457.308 Z" class="cls-25" />
    <path d="M235.122,420.161 L232.500,422.789 L229.845,420.127 L229.845,420.127 C229.755,420.040 229.632,419.986 229.497,419.986 C229.221,419.986 228.997,420.211 228.997,420.488 C228.997,420.623 229.051,420.746 229.137,420.836 L229.137,420.836 L232.139,423.846 L232.139,423.846 C232.230,423.940 232.358,423.999 232.499,423.999 C232.500,423.999 232.500,423.999 232.500,423.999 C232.501,423.999 232.501,423.999 232.502,423.999 C232.643,423.999 232.770,423.940 232.862,423.846 L232.862,423.846 L235.864,420.836 L235.862,420.835 C235.948,420.745 236.001,420.623 236.001,420.488 C236.001,420.211 235.777,419.986 235.501,419.986 C235.349,419.986 235.213,420.054 235.122,420.161 Z" class="cls-25" />
    <path d="M472.762,237.502 L469.362,240.997 L472.762,244.493 L472.762,244.493 C472.918,244.653 473.014,244.873 473.014,245.117 C473.014,245.605 472.629,246.000 472.155,246.000 C471.918,246.000 471.703,245.901 471.548,245.741 L471.548,245.741 L468.147,242.246 L464.747,245.741 L464.747,245.741 C464.591,245.901 464.376,246.000 464.139,246.000 C463.665,246.000 463.280,245.605 463.280,245.117 C463.280,244.873 463.377,244.653 463.532,244.493 L463.532,244.493 L466.933,240.997 L463.532,237.502 L463.532,237.502 C463.377,237.342 463.280,237.121 463.280,236.878 C463.280,236.390 463.665,235.995 464.139,235.995 C464.376,235.995 464.591,236.094 464.747,236.253 L464.747,236.253 L468.147,239.749 L471.548,236.253 L471.548,236.253 C471.703,236.094 471.918,235.995 472.155,235.995 C472.629,235.995 473.014,236.390 473.014,236.878 C473.014,237.121 472.918,237.342 472.762,237.502 L472.762,237.502 Z" class="cls-7" />
</svg>
