<?xml version="1.0" encoding="utf-8" standalone="no" ?>
<svg xmlns="http://www.w3.org/2000/svg" xmlns:xlink="http://www.w3.org/1999/xlink" preserveAspectRatio="xMidYMid" width="829" height="625" viewBox="0 0 829 625">
    <defs>
        <style>
            .cls-1 {
            fill: #e1e6f6;
            stroke: #ababab;
            }

            .cls-1, .cls-16, .cls-4, .cls-5, .cls-6 {
            stroke-linejoin: round;
            stroke-width: 1px;
            }

            .cls-2, .cls-5 {
            fill: #fff;
            }

            .cls-3 {
            fill: #aac3dd;
            }

            .cls-4 {
            fill: #f0f3fb;
            }

            .cls-4, .cls-5, .cls-6 {
            stroke: #ccc;
            }

            .cls-12, .cls-13, .cls-14, .cls-15, .cls-16, .cls-17, .cls-21, .cls-4, .cls-5, .cls-6 {
            fill-rule: evenodd;
            }

            .cls-6 {
            fill: #f4f6fc;
            }

            .cls-7 {
            fill: #9dc7f2;
            }

            .cls-8 {
            fill: #ebebeb;
            }

            .cls-10, .cls-11, .cls-9 {
            font-size: 13.333px;
            }

            .cls-10 {
            fill: #161616;
            }

            .cls-10, .cls-11 {
            font-family: "Myriad Pro";
            }

            .cls-11, .cls-13 {
            fill: #acacac;
            }

            .cls-12 {
            fill: #404040;
            }

            .cls-14, .cls-20 {
            fill: #2d2d2d;
            }

            .cls-15 {
            fill: #999;
            }

            .cls-16 {
            fill: #f6f6f6;
            stroke: #d1d2de;
            }

            .cls-17 {
            fill: #7fb1e4;
            }

            .cls-18, .cls-19, .cls-20 {
            font-size: 35.857px;
            }

            .cls-19 {
            fill: #cdcdd1;
            }

            .cls-19, .cls-20 {
            font-family: "Open Sans";
            }

            .cls-21 {
            fill: #cacace;
            }
        </style>
    </defs>
    <rect width="828" height="624" class="cls-1" />
    <rect y="1" width="828" height="42" class="cls-2" />
    <rect y="45" width="828" height="30" class="cls-3" />
    <path d="M457.000,115.000 L457.000,84.000 C457.000,80.686 454.314,78.000 451.000,78.000 L7.000,78.000 C3.686,78.000 1.000,80.686 1.000,84.000 L1.000,115.000 C1.000,115.000 3.686,115.000 7.000,115.000 " class="cls-4" />
    <path d="M827.000,623.000 L827.000,103.000 L461.000,103.000 L461.000,623.000 C461.000,623.000 463.686,623.000 467.000,623.000 " class="cls-5" />
    <path d="M827.000,104.000 L827.000,84.000 C827.000,80.686 824.314,78.000 821.000,78.000 L467.000,78.000 C463.686,78.000 461.000,80.686 461.000,84.000 L461.000,104.000 L827.000,104.000 Z" class="cls-6" />
    <path d="M457.000,623.000 L457.000,103.539 L134.000,103.000 L134.000,86.000 C134.000,86.000 134.141,80.451 132.000,79.000 C129.720,77.454 125.150,78.000 125.150,78.000 L7.000,78.000 C3.686,78.000 1.000,80.686 1.000,84.000 L1.000,623.000 C1.000,623.000 3.686,623.000 7.000,623.000 " class="cls-5" />
    <rect x="71" y="355" width="53" height="14" class="cls-7" />
    <rect x="46" y="51" width="15" height="15" rx="1" ry="1" class="cls-8" />
    <rect x="9" y="51" width="15" height="15" rx="1" ry="1" class="cls-8" />
    <rect x="68" y="51" width="15" height="15" rx="1" ry="1" class="cls-8" />
    <rect x="98" y="51" width="15" height="15" rx="1" ry="1" class="cls-8" />
    <rect x="319" y="51" width="15" height="15" rx="1" ry="1" class="cls-8" />
    <rect x="358" y="51" width="15" height="15" rx="1" ry="1" class="cls-8" />
    <rect x="397" y="51" width="15" height="15" rx="1" ry="1" class="cls-8" />
    <rect x="464" y="51" width="15" height="15" rx="1" ry="1" class="cls-8" />
    <rect x="506" y="51" width="15" height="15" rx="1" ry="1" class="cls-8" />
    <rect x="542" y="51" width="15" height="15" rx="1" ry="1" class="cls-8" />
    <rect x="605" y="51" width="15" height="15" rx="1" ry="1" class="cls-8" />
    <rect x="645" y="51" width="15" height="15" rx="1" ry="1" class="cls-8" />
    <text x="22" y="17" class="cls-9"><tspan class="cls-10">workspaceNeon - Go - Eclipse</tspan></text>
    <text x="5" y="37" class="cls-9"><tspan class="cls-10">File</tspan></text>
    <text x="37" y="37" class="cls-9"><tspan class="cls-10">Edit</tspan></text>
    <text x="73" y="37" class="cls-9"><tspan class="cls-10">Navigate</tspan></text>
    <text x="131" y="37" class="cls-9"><tspan class="cls-10">Search</tspan></text>
    <text x="181" y="37" class="cls-9"><tspan class="cls-10">Project</tspan></text>
    <text x="232" y="37" class="cls-9"><tspan class="cls-10">Run</tspan></text>
    <text x="268" y="37" class="cls-9"><tspan class="cls-10">Window</tspan></text>
    <text x="326" y="37" class="cls-9"><tspan class="cls-10">Help</tspan></text>
    <text transform="translate(41 117) scale(0.83 0.83)" class="cls-9"><tspan class="cls-10">d7sms_lib</tspan></text>
    <text x="27" y="96" class="cls-9"><tspan class="cls-10">Project Explorer</tspan></text>
    <text transform="translate(58 134) scale(0.83 0.83)" class="cls-9"><tspan class="cls-10">GOROOT</tspan></text>
    <text transform="translate(101 134) scale(0.83 0.83)" class="cls-9"><tspan class="cls-11">- C:\PathToGoRoot\Go\src</tspan></text>
    <text transform="translate(99 149) scale(0.83 0.83)" class="cls-9"><tspan class="cls-11">-C:\Users\Username\Desktop\GoLang\src</tspan></text>
    <text transform="translate(58 149) scale(0.83 0.83)" class="cls-9"><tspan class="cls-10">GOPATH</tspan></text>
    <text transform="translate(58 164) scale(0.83 0.83)" class="cls-9"><tspan class="cls-10">Build Targets</tspan></text>
    <text transform="translate(58 178) scale(0.83 0.83)" class="cls-9"><tspan class="cls-10">pkg</tspan></text>
    <text transform="translate(58 194) scale(0.83 0.83)" class="cls-9"><tspan class="cls-10">src</tspan></text>
    <text transform="translate(66 207) scale(0.83 0.83)" class="cls-9"><tspan class="cls-10">LICENSE</tspan></text>
    <text transform="translate(66 222) scale(0.83 0.83)" class="cls-9"><tspan class="cls-10">README.md</tspan></text>
    <path d="M17.517,113.326 L14.727,116.032 L11.902,113.290 L11.902,113.291 C11.806,113.201 11.676,113.146 11.532,113.146 C11.238,113.146 11.000,113.377 11.000,113.662 C11.000,113.801 11.057,113.928 11.149,114.021 L11.149,114.021 L14.343,117.120 L14.343,117.120 C14.440,117.217 14.576,117.278 14.726,117.278 C14.727,117.278 14.727,117.278 14.727,117.278 C14.728,117.278 14.728,117.278 14.729,117.278 C14.879,117.278 15.015,117.217 15.112,117.120 L15.112,117.120 L18.306,114.021 L18.305,114.019 C18.396,113.927 18.453,113.801 18.453,113.662 C18.453,113.377 18.214,113.146 17.920,113.146 C17.759,113.146 17.614,113.216 17.517,113.326 Z" class="cls-12" />
    <path d="M28.573,127.308 L31.283,130.093 L28.537,132.915 L28.537,132.915 C28.448,133.011 28.392,133.141 28.392,133.284 C28.392,133.578 28.624,133.816 28.910,133.816 C29.049,133.816 29.176,133.759 29.269,133.667 L29.269,133.667 L32.372,130.477 L32.372,130.477 C32.470,130.380 32.530,130.245 32.530,130.095 C32.530,130.094 32.530,130.094 32.530,130.093 C32.530,130.093 32.530,130.093 32.530,130.092 C32.530,129.942 32.470,129.806 32.372,129.710 L32.372,129.709 L29.269,126.520 L29.267,126.521 C29.174,126.430 29.048,126.374 28.910,126.374 C28.624,126.374 28.392,126.612 28.392,126.905 C28.392,127.066 28.462,127.211 28.573,127.308 Z" class="cls-13" />
    <path d="M28.573,142.192 L31.283,144.977 L28.537,147.799 L28.537,147.799 C28.448,147.895 28.392,148.025 28.392,148.168 C28.392,148.462 28.624,148.700 28.910,148.700 C29.049,148.700 29.176,148.643 29.269,148.550 L29.269,148.551 L32.372,145.361 L32.372,145.361 C32.470,145.264 32.530,145.129 32.530,144.979 C32.530,144.978 32.530,144.978 32.530,144.977 C32.530,144.977 32.530,144.977 32.530,144.976 C32.530,144.826 32.470,144.690 32.372,144.594 L32.372,144.593 L29.269,141.404 L29.267,141.405 C29.174,141.314 29.048,141.258 28.910,141.258 C28.624,141.258 28.392,141.496 28.392,141.789 C28.392,141.950 28.462,142.095 28.573,142.192 Z" class="cls-13" />
    <path d="M28.573,157.076 L31.283,159.861 L28.537,162.683 L28.537,162.683 C28.448,162.779 28.392,162.909 28.392,163.052 C28.392,163.346 28.624,163.584 28.910,163.584 C29.049,163.584 29.176,163.527 29.269,163.434 L29.269,163.435 L32.372,160.245 L32.372,160.245 C32.470,160.148 32.530,160.013 32.530,159.863 C32.530,159.862 32.530,159.862 32.530,159.861 C32.530,159.861 32.530,159.861 32.530,159.860 C32.530,159.710 32.470,159.574 32.372,159.478 L32.372,159.477 L29.269,156.288 L29.267,156.289 C29.174,156.198 29.048,156.142 28.910,156.142 C28.624,156.142 28.392,156.380 28.392,156.673 C28.392,156.834 28.462,156.979 28.573,157.076 Z" class="cls-13" />
    <path d="M28.573,171.960 L31.283,174.745 L28.537,177.567 L28.537,177.567 C28.448,177.663 28.392,177.793 28.392,177.936 C28.392,178.230 28.624,178.468 28.910,178.468 C29.049,178.468 29.176,178.411 29.269,178.319 L29.269,178.319 L32.372,175.129 L32.372,175.129 C32.470,175.032 32.530,174.897 32.530,174.747 C32.530,174.746 32.530,174.746 32.530,174.745 C32.530,174.745 32.530,174.745 32.530,174.744 C32.530,174.594 32.470,174.458 32.372,174.362 L32.372,174.362 L29.269,171.172 L29.267,171.173 C29.174,171.082 29.048,171.026 28.910,171.026 C28.624,171.026 28.392,171.264 28.392,171.557 C28.392,171.718 28.462,171.863 28.573,171.960 Z" class="cls-13" />
    <path d="M28.573,187.671 L31.283,190.456 L28.537,193.278 L28.537,193.278 C28.448,193.374 28.392,193.503 28.392,193.647 C28.392,193.940 28.624,194.178 28.910,194.178 C29.049,194.178 29.176,194.122 29.269,194.029 L29.269,194.030 L32.372,190.840 L32.372,190.840 C32.470,190.743 32.530,190.608 32.530,190.457 C32.530,190.457 32.530,190.457 32.530,190.456 C32.530,190.456 32.530,190.455 32.530,190.455 C32.530,190.305 32.470,190.169 32.372,190.073 L32.372,190.072 L29.269,186.883 L29.267,186.884 C29.174,186.793 29.048,186.737 28.910,186.737 C28.624,186.737 28.392,186.974 28.392,187.268 C28.392,187.429 28.462,187.574 28.573,187.671 Z" class="cls-13" />
    <text transform="translate(41 237) scale(0.83 0.83)" class="cls-9"><tspan class="cls-10">Test</tspan></text>
    <text transform="translate(58 250) scale(0.83 0.83)" class="cls-9"><tspan class="cls-10">GOROOT</tspan></text>
    <text transform="translate(158 372) scale(0.8 0.8)" class="cls-9"><tspan class="cls-11">- C:\PathToGoRoot\Go\src</tspan></text>
    <text transform="translate(99 265) scale(0.83 0.83)" class="cls-9"><tspan class="cls-11">-C:\Users\Username\Desktop\GoLang\src</tspan></text>
    <text transform="translate(58 265) scale(0.83 0.83)" class="cls-9"><tspan class="cls-10">GOPATH</tspan></text>
    <text transform="translate(58 280) scale(0.83 0.83)" class="cls-9"><tspan class="cls-10">GOPATH</tspan></text>
    <path d="M17.517,231.320 L14.727,234.027 L11.902,231.285 L11.902,231.285 C11.806,231.196 11.676,231.140 11.532,231.140 C11.238,231.140 11.000,231.372 11.000,231.657 C11.000,231.796 11.057,231.922 11.149,232.015 L11.149,232.015 L14.343,235.114 L14.343,235.114 C14.440,235.212 14.576,235.272 14.726,235.272 C14.727,235.272 14.727,235.272 14.727,235.272 C14.728,235.272 14.728,235.272 14.729,235.272 C14.879,235.272 15.015,235.212 15.112,235.114 L15.112,235.114 L18.306,232.015 L18.305,232.014 C18.396,231.921 18.453,231.796 18.453,231.657 C18.453,231.372 18.214,231.140 17.920,231.140 C17.759,231.140 17.614,231.210 17.517,231.320 Z" class="cls-12" />
    <path d="M28.573,244.130 L31.283,246.915 L28.537,249.736 L28.537,249.737 C28.448,249.832 28.392,249.962 28.392,250.106 C28.392,250.399 28.624,250.637 28.910,250.637 C29.049,250.637 29.176,250.580 29.269,250.488 L29.269,250.488 L32.372,247.299 L32.372,247.299 C32.470,247.202 32.530,247.066 32.530,246.916 C32.530,246.916 32.530,246.915 32.530,246.915 C32.530,246.915 32.530,246.914 32.530,246.914 C32.530,246.764 32.470,246.628 32.372,246.531 L32.372,246.531 L29.269,243.342 L29.267,243.343 C29.174,243.251 29.048,243.195 28.910,243.195 C28.624,243.195 28.392,243.433 28.392,243.727 C28.392,243.888 28.462,244.032 28.573,244.130 Z" class="cls-13" />
    <path d="M28.573,259.014 L31.283,261.799 L28.537,264.620 L28.537,264.621 C28.448,264.716 28.392,264.846 28.392,264.990 C28.392,265.283 28.624,265.521 28.910,265.521 C29.049,265.521 29.176,265.464 29.269,265.372 L29.269,265.372 L32.372,262.183 L32.372,262.183 C32.470,262.086 32.530,261.950 32.530,261.800 C32.530,261.800 32.530,261.799 32.530,261.799 C32.530,261.799 32.530,261.798 32.530,261.798 C32.530,261.648 32.470,261.512 32.372,261.415 L32.372,261.415 L29.269,258.226 L29.267,258.227 C29.174,258.135 29.048,258.079 28.910,258.079 C28.624,258.079 28.392,258.317 28.392,258.611 C28.392,258.772 28.462,258.916 28.573,259.014 Z" class="cls-13" />
    <path d="M28.573,273.898 L31.283,276.683 L28.537,279.504 L28.537,279.505 C28.448,279.600 28.392,279.730 28.392,279.874 C28.392,280.167 28.624,280.405 28.910,280.405 C29.049,280.405 29.176,280.348 29.269,280.256 L29.269,280.256 L32.372,277.067 L32.372,277.067 C32.470,276.970 32.530,276.834 32.530,276.684 C32.530,276.684 32.530,276.683 32.530,276.683 C32.530,276.683 32.530,276.682 32.530,276.682 C32.530,276.531 32.470,276.396 32.372,276.299 L32.372,276.299 L29.269,273.110 L29.267,273.111 C29.174,273.019 29.048,272.963 28.910,272.963 C28.624,272.963 28.392,273.201 28.392,273.495 C28.392,273.656 28.462,273.800 28.573,273.898 Z" class="cls-13" />
    <text transform="translate(58 295) scale(0.83 0.83)" class="cls-9"><tspan class="cls-10">Build Target</tspan></text>
    <text transform="translate(58 310) scale(0.83 0.83)" class="cls-9"><tspan class="cls-10">bin</tspan></text>
    <text transform="translate(58 325) scale(0.83 0.83)" class="cls-9"><tspan class="cls-10">pkg</tspan></text>
    <path d="M28.573,289.130 L31.283,291.915 L28.537,294.736 L28.537,294.737 C28.448,294.832 28.392,294.962 28.392,295.106 C28.392,295.399 28.624,295.637 28.910,295.637 C29.049,295.637 29.176,295.580 29.269,295.488 L29.269,295.488 L32.372,292.299 L32.372,292.299 C32.470,292.202 32.530,292.066 32.530,291.916 C32.530,291.916 32.530,291.915 32.530,291.915 C32.530,291.915 32.530,291.914 32.530,291.914 C32.530,291.764 32.470,291.628 32.372,291.531 L32.372,291.531 L29.269,288.342 L29.267,288.343 C29.174,288.251 29.048,288.195 28.910,288.195 C28.624,288.195 28.392,288.433 28.392,288.727 C28.392,288.888 28.462,289.032 28.573,289.130 Z" class="cls-13" />
    <path d="M28.573,304.014 L31.283,306.799 L28.537,309.620 L28.537,309.621 C28.448,309.716 28.392,309.846 28.392,309.990 C28.392,310.283 28.624,310.521 28.910,310.521 C29.049,310.521 29.176,310.464 29.269,310.372 L29.269,310.372 L32.372,307.183 L32.372,307.183 C32.470,307.086 32.530,306.950 32.530,306.800 C32.530,306.800 32.530,306.799 32.530,306.799 C32.530,306.799 32.530,306.798 32.530,306.798 C32.530,306.648 32.470,306.512 32.372,306.415 L32.372,306.415 L29.269,303.226 L29.267,303.227 C29.174,303.135 29.048,303.079 28.910,303.079 C28.624,303.079 28.392,303.317 28.392,303.611 C28.392,303.772 28.462,303.916 28.573,304.014 Z" class="cls-13" />
    <text transform="translate(58 340) scale(0.83 0.83)" class="cls-9"><tspan class="cls-10">src</tspan></text>
    <text transform="translate(65 352) scale(0.83 0.83)" class="cls-9"><tspan class="cls-10">test.com</tspan></text>
    <text transform="translate(73 365) scale(0.83 0.83)" class="cls-9"><tspan class="cls-10">testsdk.go</tspan></text>
    <path d="M28.573,333.898 L31.283,336.683 L28.537,339.504 L28.537,339.505 C28.448,339.600 28.392,339.730 28.392,339.874 C28.392,340.167 28.624,340.405 28.910,340.405 C29.049,340.405 29.176,340.348 29.269,340.256 L29.269,340.256 L32.372,337.067 L32.372,337.067 C32.470,336.970 32.530,336.834 32.530,336.684 C32.530,336.684 32.530,336.683 32.530,336.683 C32.530,336.683 32.530,336.682 32.530,336.682 C32.530,336.531 32.470,336.396 32.372,336.299 L32.372,336.299 L29.269,333.110 L29.267,333.111 C29.174,333.019 29.048,332.963 28.910,332.963 C28.624,332.963 28.392,333.201 28.392,333.495 C28.392,333.656 28.462,333.800 28.573,333.898 Z" class="cls-13" />
    <path d="M48.124,346.161 L45.503,348.789 L42.848,346.127 L42.847,346.127 C42.757,346.040 42.635,345.986 42.500,345.986 C42.224,345.986 42.000,346.211 42.000,346.488 C42.000,346.623 42.054,346.746 42.140,346.836 L42.140,346.836 L45.142,349.846 L45.142,349.846 C45.233,349.940 45.361,349.999 45.502,349.999 C45.502,349.999 45.503,349.999 45.503,349.999 C45.504,349.999 45.504,349.999 45.504,349.999 C45.646,349.999 45.773,349.940 45.864,349.846 L45.864,349.846 L48.866,346.836 L48.865,346.835 C48.951,346.745 49.004,346.623 49.004,346.488 C49.004,346.211 48.780,345.986 48.504,345.986 C48.352,345.986 48.216,346.054 48.124,346.161 Z" class="cls-14" />
    <path d="M343.249,61.263 L340.495,56.493 L346.003,56.493 L343.249,61.263 Z" class="cls-15" />
    <path d="M381.249,61.263 L378.495,56.493 L384.003,56.493 L381.249,61.263 Z" class="cls-15" />
    <path d="M419.249,61.263 L416.495,56.493 L422.003,56.493 L419.249,61.263 Z" class="cls-15" />
    <path d="M486.249,61.263 L483.495,56.493 L489.003,56.493 L486.249,61.263 Z" class="cls-15" />
    <path d="M528.249,61.263 L525.495,56.493 L531.003,56.493 L528.249,61.263 Z" class="cls-15" />
    <path d="M566.249,61.263 L563.495,56.493 L569.003,56.493 L566.249,61.263 Z" class="cls-15" />
    <path d="M627.249,61.263 L624.495,56.493 L630.003,56.493 L627.249,61.263 Z" class="cls-15" />
    <path d="M666.249,61.263 L663.495,56.493 L669.003,56.493 L666.249,61.263 Z" class="cls-15" />
    <path d="M120.005,356.000 L299.341,356.000 L299.341,620.000 L120.411,620.000 " class="cls-16" />
    <path d="M120.969,513.235 L298.365,513.235 L298.365,527.551 L120.969,527.551 L120.969,513.235 Z" class="cls-17" />
    <text transform="translate(145 383) scale(0.22 0.22)" class="cls-18"><tspan class="cls-19">Go into</tspan></text>
    <text transform="translate(145 366) scale(0.22 0.22)" class="cls-18"><tspan class="cls-19">New</tspan></text>
    <text transform="translate(145 395) scale(0.22 0.22)" class="cls-18"><tspan class="cls-19">Copy</tspan></text>
    <text transform="translate(145 407) scale(0.22 0.22)" class="cls-18"><tspan class="cls-19">Paste</tspan></text>
    <text transform="translate(145 420) scale(0.22 0.22)" class="cls-18"><tspan class="cls-19">Delete</tspan></text>
    <text transform="translate(145 433) scale(0.22 0.22)" class="cls-18"><tspan class="cls-19">Remove from Context</tspan></text>
    <text transform="translate(145 445) scale(0.22 0.22)" class="cls-18"><tspan class="cls-19">Move...</tspan></text>
    <text transform="translate(145 459) scale(0.22 0.22)" class="cls-18"><tspan class="cls-19">Rename...</tspan></text>
    <text transform="translate(145 471) scale(0.22 0.22)" class="cls-18"><tspan class="cls-19">Import...</tspan></text>
    <text transform="translate(145 485) scale(0.22 0.22)" class="cls-18"><tspan class="cls-19">export...</tspan></text>
    <text transform="translate(145 497) scale(0.22 0.22)" class="cls-18"><tspan class="cls-19">Build Project</tspan></text>
    <text transform="translate(145 509) scale(0.22 0.22)" class="cls-18"><tspan class="cls-19">Validate</tspan></text>
    <text transform="translate(145 523) scale(0.22 0.22)" class="cls-18"><tspan class="cls-20">Run As</tspan></text>
    <text transform="translate(145 535) scale(0.22 0.22)" class="cls-18"><tspan class="cls-19">Debug As</tspan></text>
    <text transform="translate(145 548) scale(0.22 0.22)" class="cls-18"><tspan class="cls-19">Profile As</tspan></text>
    <text transform="translate(145 562) scale(0.22 0.22)" class="cls-18"><tspan class="cls-19">Restore from Local Hostory...</tspan></text>
    <text transform="translate(145 574) scale(0.22 0.22)" class="cls-18"><tspan class="cls-19">Team</tspan></text>
    <text transform="translate(145 588) scale(0.22 0.22)" class="cls-18"><tspan class="cls-19">Compare With</tspan></text>
    <text transform="translate(145 600) scale(0.22 0.22)" class="cls-18"><tspan class="cls-19">Source</tspan></text>
    <text transform="translate(145 613) scale(0.22 0.22)" class="cls-18"><tspan class="cls-19">Properties</tspan></text>
    <path d="M294.433,514.206 L435.007,514.206 L435.007,546.235 L294.839,546.235 " class="cls-16" />
    <path d="M294.969,515.235 L434.365,515.235 L434.365,529.551 L294.969,529.551 L294.969,515.235 Z" class="cls-17" />
    <text transform="translate(320 525) scale(0.22 0.22)" class="cls-18"><tspan class="cls-20">1 Go Application</tspan></text>
    <text transform="translate(319 539) scale(0.22 0.22)" class="cls-18"><tspan class="cls-19">Run Configuration...</tspan></text>
    <path d="M298.058,449.494 L298.058,450.145 L122.586,450.145 L122.586,449.494 L298.058,449.494 Z" class="cls-21" />
    <path d="M298.058,500.782 L298.058,501.433 L122.586,501.433 L122.586,500.782 L298.058,500.782 Z" class="cls-21" />
    <path d="M298.058,513.117 L298.058,513.768 L122.586,513.768 L122.586,513.117 L298.058,513.117 Z" class="cls-21" />
    <path d="M288.200,517.989 L290.826,520.692 L288.165,523.431 L288.165,523.431 C288.078,523.524 288.025,523.650 288.025,523.789 C288.025,524.074 288.249,524.305 288.526,524.305 C288.661,524.305 288.784,524.250 288.874,524.160 L288.874,524.160 L291.882,521.065 L291.881,521.065 C291.976,520.971 292.035,520.839 292.035,520.693 C292.035,520.693 292.035,520.693 292.035,520.692 C292.035,520.692 292.035,520.691 292.035,520.691 C292.035,520.545 291.976,520.414 291.881,520.320 L291.882,520.320 L288.874,517.224 L288.873,517.225 C288.783,517.137 288.661,517.082 288.526,517.082 C288.249,517.082 288.025,517.313 288.025,517.598 C288.025,517.754 288.093,517.894 288.200,517.989 Z" class="cls-14" />
</svg>
