<?xml version="1.0" encoding="utf-8" standalone="no" ?>
<svg xmlns="http://www.w3.org/2000/svg" xmlns:xlink="http://www.w3.org/1999/xlink" preserveAspectRatio="xMidYMid" width="829" height="625" viewBox="0 0 829 625">
    <defs>
        <style>
            .cls-1 {
            fill: #e1e6f6;
            stroke: #ababab;
            }

            .cls-1, .cls-4, .cls-5, .cls-6 {
            stroke-linejoin: round;
            stroke-width: 1px;
            }

            .cls-2, .cls-5 {
            fill: #fff;
            }

            .cls-3 {
            fill: #aac3dd;
            }

            .cls-4 {
            fill: #f0f3fb;
            }

            .cls-4, .cls-5, .cls-6 {
            stroke: #ccc;
            }

            .cls-11, .cls-12, .cls-13, .cls-4, .cls-5, .cls-6 {
            fill-rule: evenodd;
            }

            .cls-6 {
            fill: #f4f6fc;
            }

            .cls-7 {
            fill: #ebebeb;
            }

            .cls-10, .cls-8, .cls-9 {
            font-size: 13.333px;
            }

            .cls-9 {
            fill: #161616;
            }

            .cls-10, .cls-9 {
            font-family: "Myriad Pro";
            }

            .cls-10, .cls-12 {
            fill: #acacac;
            }

            .cls-11 {
            fill: #404040;
            }

            .cls-13 {
            fill: #999;
            }
        </style>
    </defs>
    <rect width="828" height="624" class="cls-1" />
    <rect y="1" width="828" height="42" class="cls-2" />
    <rect y="45" width="828" height="30" class="cls-3" />
    <path d="M457.000,104.000 L457.000,84.000 C457.000,80.686 454.314,78.000 451.000,78.000 L8.000,78.000 C4.686,78.000 2.000,80.686 2.000,84.000 L2.000,104.000 C2.000,104.000 4.686,104.000 8.000,104.000 " class="cls-4" />
    <path d="M827.000,623.000 L827.000,104.000 L461.000,104.000 L461.000,623.000 C461.000,623.000 463.686,623.000 467.000,623.000 " class="cls-5" />
    <path d="M827.000,104.000 L827.000,84.000 C827.000,80.686 824.314,78.000 821.000,78.000 L467.000,78.000 C463.686,78.000 461.000,80.686 461.000,84.000 L461.000,104.000 L827.000,104.000 Z" class="cls-6" />
    <path d="M457.000,623.000 L457.000,103.539 L134.000,103.000 L134.000,86.000 C134.000,86.000 134.141,80.451 132.000,79.000 C129.720,77.454 125.150,78.000 125.150,78.000 L7.000,78.000 C3.686,78.000 1.000,80.686 1.000,84.000 L1.000,623.000 C1.000,623.000 3.686,623.000 7.000,623.000 " class="cls-5" />
    <rect x="46" y="51" width="15" height="15" rx="1" ry="1" class="cls-7" />
    <rect x="9" y="51" width="15" height="15" rx="1" ry="1" class="cls-7" />
    <rect x="68" y="51" width="15" height="15" rx="1" ry="1" class="cls-7" />
    <rect x="98" y="51" width="15" height="15" rx="1" ry="1" class="cls-7" />
    <rect x="319" y="51" width="15" height="15" rx="1" ry="1" class="cls-7" />
    <rect x="358" y="51" width="15" height="15" rx="1" ry="1" class="cls-7" />
    <rect x="397" y="51" width="15" height="15" rx="1" ry="1" class="cls-7" />
    <rect x="464" y="51" width="15" height="15" rx="1" ry="1" class="cls-7" />
    <rect x="506" y="51" width="15" height="15" rx="1" ry="1" class="cls-7" />
    <rect x="542" y="51" width="15" height="15" rx="1" ry="1" class="cls-7" />
    <rect x="605" y="51" width="15" height="15" rx="1" ry="1" class="cls-7" />
    <rect x="645" y="51" width="15" height="15" rx="1" ry="1" class="cls-7" />
    <text x="22" y="17" class="cls-8"><tspan class="cls-9">workspaceNeon - Go - Eclipse</tspan></text>
    <text x="5" y="37" class="cls-8"><tspan class="cls-9">File</tspan></text>
    <text x="37" y="37" class="cls-8"><tspan class="cls-9">Edit</tspan></text>
    <text x="73" y="37" class="cls-8"><tspan class="cls-9">Navigate</tspan></text>
    <text x="131" y="37" class="cls-8"><tspan class="cls-9">Search</tspan></text>
    <text x="181" y="37" class="cls-8"><tspan class="cls-9">Project</tspan></text>
    <text x="232" y="37" class="cls-8"><tspan class="cls-9">Run</tspan></text>
    <text x="268" y="37" class="cls-8"><tspan class="cls-9">Window</tspan></text>
    <text x="326" y="37" class="cls-8"><tspan class="cls-9">Help</tspan></text>
    <text x="47" y="119" class="cls-8"><tspan class="cls-9">d7sms_lib</tspan></text>
    <text x="27" y="96" class="cls-8"><tspan class="cls-9">Project Explorer</tspan></text>
    <text x="67" y="139" class="cls-8"><tspan class="cls-9">GOROOT </tspan></text>
    <text x="119" y="139" class="cls-8"><tspan class="cls-10"> - C:\PathToGoRoot\Go\src</tspan></text>
    <text x="117" y="157" class="cls-8"><tspan class="cls-10"> - C:\Users\Username\Desktop\GoLang\src</tspan></text>
    <text x="67" y="157" class="cls-8"><tspan class="cls-9">GOPATH</tspan></text>
    <text x="67" y="175" class="cls-8"><tspan class="cls-9">Build Targets</tspan></text>
    <text x="67" y="197" class="cls-8"><tspan class="cls-9">pkg</tspan></text>
    <text x="67" y="219" class="cls-8"><tspan class="cls-9">src</tspan></text>
    <text x="67" y="235" class="cls-8"><tspan class="cls-9">LICENSE</tspan></text>
    <text x="67" y="253" class="cls-8"><tspan class="cls-9">README.md</tspan></text>
    <path d="M18.870,114.221 L15.501,117.493 L12.089,114.178 L12.089,114.178 C11.973,114.070 11.816,114.003 11.643,114.003 C11.288,114.003 11.000,114.283 11.000,114.628 C11.000,114.796 11.069,114.949 11.180,115.061 L11.180,115.061 L15.037,118.809 L15.037,118.809 C15.154,118.927 15.318,119.000 15.500,119.000 C15.500,119.000 15.501,119.000 15.501,119.000 C15.502,119.000 15.502,119.000 15.503,119.000 C15.684,119.000 15.848,118.927 15.965,118.809 L15.966,118.809 L19.823,115.061 L19.821,115.060 C19.932,114.947 20.000,114.795 20.000,114.628 C20.000,114.283 19.712,114.003 19.357,114.003 C19.162,114.003 18.987,114.087 18.870,114.221 Z" class="cls-11" />
    <path d="M32.221,131.130 L35.493,134.499 L32.178,137.911 L32.178,137.911 C32.070,138.027 32.003,138.184 32.003,138.357 C32.003,138.712 32.283,139.000 32.628,139.000 C32.796,139.000 32.949,138.931 33.061,138.820 L33.061,138.820 L36.809,134.963 L36.809,134.963 C36.927,134.846 37.000,134.682 37.000,134.500 C37.000,134.500 37.000,134.499 37.000,134.499 C37.000,134.498 37.000,134.498 37.000,134.497 C37.000,134.315 36.927,134.152 36.809,134.035 L36.809,134.034 L33.061,130.177 L33.060,130.179 C32.947,130.068 32.795,130.000 32.628,130.000 C32.283,130.000 32.003,130.288 32.003,130.643 C32.003,130.838 32.087,131.013 32.221,131.130 Z" class="cls-12" />
    <path d="M32.221,149.130 L35.493,152.499 L32.178,155.911 L32.178,155.911 C32.070,156.027 32.003,156.184 32.003,156.357 C32.003,156.712 32.283,157.000 32.628,157.000 C32.796,157.000 32.949,156.931 33.061,156.820 L33.061,156.820 L36.809,152.963 L36.809,152.963 C36.927,152.846 37.000,152.682 37.000,152.500 C37.000,152.500 37.000,152.499 37.000,152.499 C37.000,152.498 37.000,152.498 37.000,152.497 C37.000,152.315 36.927,152.152 36.809,152.035 L36.809,152.034 L33.061,148.177 L33.060,148.179 C32.947,148.068 32.795,148.000 32.628,148.000 C32.283,148.000 32.003,148.288 32.003,148.643 C32.003,148.838 32.087,149.013 32.221,149.130 Z" class="cls-12" />
    <path d="M32.221,167.130 L35.493,170.499 L32.178,173.911 L32.178,173.911 C32.070,174.027 32.003,174.184 32.003,174.357 C32.003,174.712 32.283,175.000 32.628,175.000 C32.796,175.000 32.949,174.931 33.061,174.820 L33.061,174.820 L36.809,170.963 L36.809,170.963 C36.927,170.846 37.000,170.682 37.000,170.500 C37.000,170.500 37.000,170.499 37.000,170.499 C37.000,170.498 37.000,170.498 37.000,170.497 C37.000,170.315 36.927,170.152 36.809,170.035 L36.809,170.034 L33.061,166.177 L33.060,166.179 C32.947,166.068 32.795,166.000 32.628,166.000 C32.283,166.000 32.003,166.288 32.003,166.643 C32.003,166.838 32.087,167.013 32.221,167.130 Z" class="cls-12" />
    <path d="M32.221,185.130 L35.493,188.499 L32.178,191.911 L32.178,191.911 C32.070,192.027 32.003,192.184 32.003,192.357 C32.003,192.712 32.283,193.000 32.628,193.000 C32.796,193.000 32.949,192.931 33.061,192.820 L33.061,192.820 L36.809,188.963 L36.809,188.963 C36.927,188.846 37.000,188.682 37.000,188.500 C37.000,188.500 37.000,188.499 37.000,188.499 C37.000,188.498 37.000,188.498 37.000,188.497 C37.000,188.315 36.927,188.152 36.809,188.035 L36.809,188.034 L33.061,184.177 L33.060,184.179 C32.947,184.068 32.795,184.000 32.628,184.000 C32.283,184.000 32.003,184.288 32.003,184.643 C32.003,184.838 32.087,185.013 32.221,185.130 Z" class="cls-12" />
    <path d="M32.221,204.130 L35.493,207.499 L32.178,210.911 L32.178,210.911 C32.070,211.027 32.003,211.184 32.003,211.357 C32.003,211.712 32.283,212.000 32.628,212.000 C32.796,212.000 32.949,211.931 33.061,211.820 L33.061,211.820 L36.809,207.963 L36.809,207.963 C36.927,207.846 37.000,207.682 37.000,207.500 C37.000,207.500 37.000,207.499 37.000,207.499 C37.000,207.498 37.000,207.498 37.000,207.497 C37.000,207.315 36.927,207.152 36.809,207.035 L36.809,207.034 L33.061,203.177 L33.060,203.179 C32.947,203.068 32.795,203.000 32.628,203.000 C32.283,203.000 32.003,203.288 32.003,203.643 C32.003,203.838 32.087,204.013 32.221,204.130 Z" class="cls-12" />
    <path d="M343.249,61.263 L340.495,56.493 L346.003,56.493 L343.249,61.263 Z" class="cls-13" />
    <path d="M381.249,61.263 L378.495,56.493 L384.003,56.493 L381.249,61.263 Z" class="cls-13" />
    <path d="M419.249,61.263 L416.495,56.493 L422.003,56.493 L419.249,61.263 Z" class="cls-13" />
    <path d="M486.249,61.263 L483.495,56.493 L489.003,56.493 L486.249,61.263 Z" class="cls-13" />
    <path d="M528.249,61.263 L525.495,56.493 L531.003,56.493 L528.249,61.263 Z" class="cls-13" />
    <path d="M566.249,61.263 L563.495,56.493 L569.003,56.493 L566.249,61.263 Z" class="cls-13" />
    <path d="M627.249,61.263 L624.495,56.493 L630.003,56.493 L627.249,61.263 Z" class="cls-13" />
    <path d="M666.249,61.263 L663.495,56.493 L669.003,56.493 L666.249,61.263 Z" class="cls-13" />
</svg>
