<?xml version="1.0" encoding="UTF-8" standalone="no" ?>
<svg xmlns="http://www.w3.org/2000/svg" xmlns:xlink="http://www.w3.org/1999/xlink" preserveAspectRatio="xMidYMid" width="844" height="540" viewBox="0 0 844 540">
    <defs>
        <style>
            .cls-1, .cls-10, .cls-21 {
                fill: #fff;
            }

            .cls-1 {
                stroke: #cacace;
                stroke-linejoin: round;
                stroke-width: 1px;
            }

            .cls-14, .cls-2 {
                fill: #e6e6e6;
            }

            .cls-19, .cls-3 {
                fill: #a9a9a9;
            }

            .cls-4 {
                fill: #a0a0a0;
            }

            .cls-11, .cls-13, .cls-14, .cls-18, .cls-24, .cls-4 {
                fill-rule: evenodd;
            }

            .cls-19, .cls-5, .cls-6 {
                font-size: 20px;
            }

            .cls-13, .cls-6 {
                fill: #2e2e2e;
            }

            .cls-10, .cls-12, .cls-19, .cls-23, .cls-6, .cls-8 {
                font-family: "Myriad Pro";
            }

            .cls-7, .cls-8 {
                font-size: 23px;
            }

            .cls-8 {
                fill: #111;
            }

            .cls-10, .cls-12, .cls-20, .cls-21, .cls-22, .cls-23, .cls-9 {
                font-size: 24px;
            }

            .cls-11 {
                fill: #3a3935;
            }

            .cls-12 {
                fill: #4d4a55;
            }

            .cls-15 {
                fill: #171814;
            }

            .cls-16, .cls-18 {
                fill: #272822;
            }

            .cls-17 {
                fill: #42433f;
            }

            .cls-20 {
                fill: #5ecee0;
            }

            .cls-20, .cls-21, .cls-22 {
                font-family: "Courier New";
            }

            .cls-22 {
                fill: #a4274f;
            }

            .cls-23 {
                fill: #6e6e6e;
            }

            .cls-24 {
                fill: #5c5c5c;
            }
        </style>
    </defs>
    <rect width="843" height="540" class="cls-1" />
    <rect x="1" y="57" width="146" height="482" class="cls-2" />
    <rect x="1" y="196" width="146" height="21" class="cls-3" />
    <rect x="1" y="87" width="146" height="21" class="cls-3" />
    <path d="M18.694,151.000 L15.771,145.937 L21.617,145.937 L18.694,151.000 Z" class="cls-4" />
    <path d="M36.000,167.009 L31.000,170.010 L31.000,164.008 L36.000,167.009 Z" class="cls-4" />
    <path d="M36.000,185.009 L31.000,188.010 L31.000,182.008 L36.000,185.009 Z" class="cls-4" />
    <text transform="translate(179 43) scale(0.5 0.5)" class="cls-5"><tspan class="cls-6">View</tspan></text>
    <text transform="translate(11 43) scale(0.5 0.5)" class="cls-5"><tspan class="cls-6">File</tspan></text>
    <text transform="translate(11 19) scale(0.5 0.5)" class="cls-7"><tspan class="cls-8">C:\Project\Generated SDKs\D7SMS-Node\index.js (D7SMS-Node) - Sublime Text</tspan></text>
    <text transform="translate(375 43) scale(0.5 0.5)" class="cls-5"><tspan class="cls-6">Preferences</tspan></text>
    <text transform="translate(447 43) scale(0.5 0.5)" class="cls-5"><tspan class="cls-6">Help</tspan></text>
    <text transform="translate(319 43) scale(0.5 0.5)" class="cls-5"><tspan class="cls-6">Project</tspan></text>
    <text transform="translate(269 43) scale(0.5 0.5)" class="cls-5"><tspan class="cls-6">Tools</tspan></text>
    <text transform="translate(44 43) scale(0.5 0.5)" class="cls-5"><tspan class="cls-6">Edit</tspan></text>
    <text transform="translate(79 43) scale(0.5 0.5)" class="cls-5"><tspan class="cls-6">Selection</tspan></text>
    <text transform="translate(141 43) scale(0.5 0.5)" class="cls-5"><tspan class="cls-6">Find</tspan></text>
    <text transform="translate(223 43) scale(0.5 0.5)" class="cls-5"><tspan class="cls-6">Goto</tspan></text>
    <text transform="translate(29 102) scale(0.5 0.5)" class="cls-9"><tspan class="cls-10">index.js</tspan></text>
    <path d="M21.853,95.901 L19.753,97.998 L21.853,100.096 L21.853,100.096 C21.949,100.192 22.008,100.324 22.008,100.470 C22.008,100.763 21.771,101.000 21.478,101.000 C21.331,101.000 21.199,100.941 21.103,100.845 L21.103,100.845 L19.002,98.747 L16.902,100.845 L16.902,100.845 C16.806,100.941 16.673,101.000 16.527,101.000 C16.234,101.000 15.996,100.763 15.996,100.470 C15.996,100.324 16.056,100.192 16.151,100.096 L16.151,100.096 L18.252,97.998 L16.151,95.901 L16.151,95.901 C16.056,95.805 15.996,95.673 15.996,95.527 C15.996,95.234 16.234,94.997 16.527,94.997 C16.673,94.997 16.806,95.056 16.902,95.152 L16.902,95.152 L19.002,97.249 L21.103,95.152 L21.103,95.152 C21.199,95.056 21.331,94.997 21.478,94.997 C21.771,94.997 22.008,95.234 22.008,95.527 C22.008,95.673 21.949,95.805 21.853,95.901 L21.853,95.901 Z" class="cls-11" />
    <text transform="translate(48 152) scale(0.5 0.5)" class="cls-9"><tspan class="cls-12">Node</tspan></text>
    <path d="M40.897,148.220 C40.797,148.002 40.645,147.835 40.440,147.719 C40.236,147.603 40.012,147.545 39.766,147.545 L38.459,147.545 L38.459,146.409 C38.459,145.973 38.309,145.599 38.010,145.286 C37.710,144.974 37.352,144.817 36.934,144.817 L33.230,144.817 L33.230,144.590 C33.230,144.154 33.080,143.780 32.781,143.468 C32.481,143.155 32.123,142.999 31.705,142.999 L29.526,142.999 C29.109,142.999 28.750,143.155 28.451,143.468 C28.151,143.780 28.001,144.154 28.001,144.590 L28.001,151.410 C28.001,151.846 28.151,152.220 28.451,152.532 C28.750,152.845 29.109,153.001 29.526,153.001 L36.934,153.001 C37.238,153.001 37.556,152.919 37.887,152.756 C38.219,152.593 38.482,152.385 38.677,152.134 L40.686,149.556 C40.894,149.281 40.999,148.997 40.999,148.703 C40.999,148.533 40.965,148.372 40.897,148.220 ZM28.873,144.590 C28.873,144.401 28.936,144.240 29.063,144.107 C29.190,143.975 29.345,143.908 29.526,143.908 L31.705,143.908 C31.887,143.908 32.041,143.974 32.168,144.107 C32.295,144.240 32.359,144.401 32.359,144.590 L32.359,145.045 C32.359,145.234 32.422,145.395 32.549,145.528 C32.676,145.660 32.831,145.727 33.012,145.727 L36.934,145.727 C37.116,145.727 37.270,145.793 37.397,145.926 C37.524,146.058 37.588,146.219 37.588,146.409 L37.588,147.545 L32.359,147.545 C32.050,147.545 31.732,147.627 31.406,147.791 C31.079,147.954 30.815,148.161 30.616,148.412 L28.873,150.650 L28.873,144.590 ZM40.005,148.980 L38.003,151.559 C37.890,151.706 37.728,151.831 37.520,151.935 C37.311,152.040 37.116,152.092 36.934,152.092 L29.526,152.092 C29.286,152.092 29.166,152.009 29.166,151.843 C29.166,151.767 29.206,151.673 29.288,151.559 L31.290,148.980 C31.408,148.833 31.570,148.709 31.777,148.607 C31.983,148.505 32.177,148.454 32.359,148.454 L39.766,148.454 C40.007,148.454 40.127,148.537 40.127,148.703 C40.127,148.784 40.086,148.876 40.005,148.980 Z" class="cls-13" />
    <path d="M52.524,164.286 C52.207,163.974 51.827,163.817 51.385,163.817 L46.538,163.817 L46.538,163.590 C46.538,163.154 46.380,162.780 46.062,162.468 C45.745,162.155 45.365,161.999 44.923,161.999 L42.615,161.999 C42.173,161.999 41.793,162.155 41.476,162.468 C41.158,162.780 41.000,163.154 41.000,163.590 L41.000,170.410 C41.000,170.846 41.158,171.220 41.476,171.532 C41.793,171.845 42.173,172.001 42.615,172.001 L51.385,172.001 C51.827,172.001 52.207,171.845 52.524,171.532 C52.842,171.220 53.000,170.846 53.000,170.410 L53.000,165.409 C53.000,164.973 52.842,164.599 52.524,164.286 ZM52.077,170.410 C52.077,170.599 52.010,170.760 51.875,170.893 C51.741,171.026 51.577,171.092 51.385,171.092 L42.615,171.092 C42.423,171.092 42.259,171.026 42.125,170.893 C41.990,170.760 41.923,170.599 41.923,170.410 L41.923,163.590 C41.923,163.401 41.990,163.240 42.125,163.107 C42.259,162.975 42.423,162.908 42.615,162.908 L44.923,162.908 C45.115,162.908 45.279,162.974 45.414,163.107 C45.548,163.240 45.615,163.401 45.615,163.590 L45.615,164.045 C45.615,164.234 45.683,164.395 45.817,164.528 C45.952,164.660 46.115,164.727 46.308,164.727 L51.385,164.727 C51.577,164.727 51.741,164.793 51.875,164.926 C52.010,165.058 52.077,165.219 52.077,165.409 L52.077,170.410 L52.077,170.410 Z" class="cls-13" />
    <path d="M52.524,182.286 C52.207,181.974 51.827,181.817 51.385,181.817 L46.538,181.817 L46.538,181.590 C46.538,181.154 46.380,180.780 46.062,180.468 C45.745,180.155 45.365,179.999 44.923,179.999 L42.615,179.999 C42.173,179.999 41.793,180.155 41.476,180.468 C41.158,180.780 41.000,181.154 41.000,181.590 L41.000,188.410 C41.000,188.846 41.158,189.220 41.476,189.532 C41.793,189.845 42.173,190.001 42.615,190.001 L51.385,190.001 C51.827,190.001 52.207,189.845 52.524,189.532 C52.842,189.220 53.000,188.846 53.000,188.410 L53.000,183.409 C53.000,182.973 52.842,182.599 52.524,182.286 ZM52.077,188.410 C52.077,188.599 52.010,188.760 51.875,188.893 C51.741,189.026 51.577,189.092 51.385,189.092 L42.615,189.092 C42.423,189.092 42.259,189.026 42.125,188.893 C41.990,188.760 41.923,188.599 41.923,188.410 L41.923,181.590 C41.923,181.401 41.990,181.240 42.125,181.107 C42.259,180.975 42.423,180.908 42.615,180.908 L44.923,180.908 C45.115,180.908 45.279,180.974 45.414,181.107 C45.548,181.240 45.615,181.401 45.615,181.590 L45.615,182.045 C45.615,182.234 45.683,182.395 45.817,182.528 C45.952,182.660 46.115,182.727 46.308,182.727 L51.385,182.727 C51.577,182.727 51.741,182.793 51.875,182.926 C52.010,183.058 52.077,183.219 52.077,183.409 L52.077,188.410 L52.077,188.410 Z" class="cls-13" />
    <text transform="translate(60 170) scale(0.5 0.5)" class="cls-9"><tspan class="cls-12">node_modules</tspan></text>
    <text transform="translate(60 189) scale(0.5 0.5)" class="cls-9"><tspan class="cls-12">test</tspan></text>
    <text transform="translate(60 211) scale(0.5 0.5)" class="cls-9"><tspan class="cls-10">index.js</tspan></text>
    <text transform="translate(60 232) scale(0.5 0.5)" class="cls-9"><tspan class="cls-12">LICENSE</tspan></text>
    <text transform="translate(60 250) scale(0.5 0.5)" class="cls-9"><tspan class="cls-12">package.json</tspan></text>
    <text transform="translate(60 271) scale(0.5 0.5)" class="cls-9"><tspan class="cls-12">README.md</tspan></text>
    <text transform="translate(14 77) scale(0.5 0.5)" class="cls-9"><tspan class="cls-12">OPEN FILES</tspan></text>
    <text transform="translate(14 130) scale(0.5 0.5)" class="cls-9"><tspan class="cls-12">FOLDERS</tspan></text>
    <path d="M54.000,201.727 L54.000,214.000 L43.000,214.000 L43.000,199.000 L51.250,199.000 L54.000,201.727 Z" class="cls-13" />
    <path d="M52.625,203.091 L49.875,203.091 L49.875,200.364 L44.375,200.364 L44.375,212.636 L52.625,212.636 L52.625,203.091 Z" class="cls-4" />
    <path d="M54.000,222.727 L54.000,235.000 L43.000,235.000 L43.000,220.000 L51.250,220.000 L54.000,222.727 Z" class="cls-13" />
    <path d="M52.625,224.091 L49.875,224.091 L49.875,221.364 L44.375,221.364 L44.375,233.636 L52.625,233.636 L52.625,224.091 Z" class="cls-14" />
    <path d="M54.000,242.727 L54.000,255.000 L43.000,255.000 L43.000,240.000 L51.250,240.000 L54.000,242.727 Z" class="cls-13" />
    <path d="M52.625,244.091 L49.875,244.091 L49.875,241.364 L44.375,241.364 L44.375,253.636 L52.625,253.636 L52.625,244.091 Z" class="cls-14" />
    <path d="M54.000,261.727 L54.000,274.000 L43.000,274.000 L43.000,259.000 L51.250,259.000 L54.000,261.727 Z" class="cls-13" />
    <path d="M52.625,263.091 L49.875,263.091 L49.875,260.364 L44.375,260.364 L44.375,272.636 L52.625,272.636 L52.625,263.091 Z" class="cls-14" />
    <path d="M0.000,57.000 L0.000,56.000 L851.000,56.000 L851.000,57.000 L0.000,57.000 Z" class="cls-4" />
    <rect x="147" y="56" width="695" height="28" class="cls-15" />
    <path d="M175.000,69.511 L168.600,73.012 L168.600,66.010 L175.000,69.511 Z" class="cls-4" />
    <path d="M159.000,69.511 L165.400,73.012 L165.400,66.010 L159.000,69.511 Z" class="cls-4" />
    <rect x="147" y="84" width="695" height="455" class="cls-16" />
    <rect x="147" y="92" width="29" height="14" class="cls-17" />
    <path d="M199.000,62.000 L298.000,62.000 C301.314,62.000 302.581,64.280 305.000,68.000 L315.000,84.000 C315.000,87.314 312.314,90.000 309.000,90.000 L188.000,90.000 C184.686,90.000 182.000,87.314 182.000,84.000 L192.000,68.000 C194.374,64.301 195.686,62.000 199.000,62.000 Z" class="cls-18" />
    <text transform="translate(203 75) scale(0.5 0.5)" class="cls-5"><tspan class="cls-19">index.js</tspan></text>
    <text transform="translate(183 103) scale(0.5 0.5)" class="cls-9"><tspan class="cls-20">const</tspan></text>
    <text transform="translate(357 103) scale(0.5 0.5)" class="cls-9"><tspan class="cls-21">);</tspan></text>
    <text transform="translate(320 103) scale(0.5 0.5)" class="cls-9"><tspan class="cls-20">'lib'</tspan></text>
    <text transform="translate(264 103) scale(0.5 0.5)" class="cls-9"><tspan class="cls-20">require</tspan></text>
    <text transform="translate(313 103) scale(0.5 0.5)" class="cls-9"><tspan class="cls-21">(</tspan></text>
    <text transform="translate(252 103) scale(0.5 0.5)" class="cls-9"><tspan class="cls-22">=</tspan></text>
    <text transform="translate(225 103) scale(0.5 0.5)" class="cls-9"><tspan class="cls-21">lib</tspan></text>
    <text transform="translate(156 103) scale(0.5 0.5)" class="cls-9"><tspan class="cls-23">1</tspan></text>
    <path d="M295.853,69.901 L293.753,71.998 L295.853,74.096 L295.853,74.096 C295.949,74.192 296.008,74.324 296.008,74.470 C296.008,74.763 295.771,75.000 295.478,75.000 C295.331,75.000 295.199,74.941 295.103,74.845 L295.103,74.845 L293.002,72.747 L290.902,74.845 L290.902,74.845 C290.806,74.941 290.673,75.000 290.527,75.000 C290.234,75.000 289.996,74.763 289.996,74.470 C289.996,74.324 290.056,74.192 290.151,74.096 L290.151,74.096 L292.252,71.998 L290.151,69.901 L290.151,69.901 C290.056,69.805 289.996,69.673 289.996,69.527 C289.996,69.234 290.234,68.997 290.527,68.997 C290.673,68.997 290.806,69.056 290.902,69.152 L290.902,69.152 L293.002,71.249 L295.103,69.152 L295.103,69.152 C295.199,69.056 295.331,68.997 295.478,68.997 C295.771,68.997 296.008,69.234 296.008,69.527 C296.008,69.673 295.949,69.805 295.853,69.901 L295.853,69.901 Z" class="cls-24" />
</svg>
