<?xml version="1.0" encoding="UTF-8" standalone="no" ?>
<svg xmlns="http://www.w3.org/2000/svg" xmlns:xlink="http://www.w3.org/1999/xlink" preserveAspectRatio="xMidYMid" width="740" height="486" viewBox="0 0 740 486">
    <defs>
        <style>
            .cls-1 {
                fill: #f5f6f7;
                stroke: #dcdcdc;
                stroke-width: 2px;
            }

            .cls-1, .cls-11, .cls-12, .cls-15, .cls-5 {
                stroke-linejoin: round;
            }

            .cls-2, .cls-5 {
                fill: #fff;
            }

            .cls-16, .cls-18, .cls-3, .cls-4 {
                font-size: 33.809px;
            }

            .cls-23, .cls-4 {
                fill: #1f1f1f;
            }

            .cls-16, .cls-18, .cls-23, .cls-4 {
                font-family: "Myriad Pro";
            }

            .cls-5 {
                stroke: #e2e2e2;
            }

            .cls-11, .cls-12, .cls-15, .cls-5 {
                stroke-width: 1px;
            }

            .cls-6 {
                fill: #141414;
            }

            .cls-17, .cls-19, .cls-20, .cls-21, .cls-6, .cls-7, .cls-8 {
                fill-rule: evenodd;
            }

            .cls-7 {
                fill: #e2e2e2;
            }

            .cls-8 {
                fill: #afaeae;
            }

            .cls-9 {
                fill: #f0f0f0;
            }

            .cls-10 {
                fill: #dbdbdb;
            }

            .cls-11 {
                fill: #ddd;
                stroke: #7f7f7f;
            }

            .cls-12, .cls-15 {
                fill: #c4e5f6;
            }

            .cls-12 {
                stroke: #4d84aa;
            }

            .cls-13, .cls-14 {
                font-size: 32.869px;
            }

            .cls-14 {
                fill: #404040;
                font-family: "Open Sans";
            }

            .cls-15 {
                stroke: #a6cadc;
            }

            .cls-16, .cls-17 {
                fill: #cdcdd1;
            }

            .cls-18 {
                fill: #42433f;
            }

            .cls-19 {
                fill: #7f7f7f;
            }

            .cls-20 {
                fill: #f3d16e;
            }

            .cls-21 {
                fill: #ffeaa5;
            }

            .cls-22, .cls-23 {
                font-size: 28.174px;
            }
        </style>
    </defs>
    <rect width="740" height="486" class="cls-1" />
    <rect x="2" y="1" width="736" height="83" class="cls-2" />
    <text transform="translate(14 20) scale(0.53 0.53)" class="cls-3"><tspan class="cls-4">Select Folder</tspan></text>
    <rect x="12" y="133" width="714" height="232" class="cls-5" />
    <rect x="180" y="375" width="529" height="30" class="cls-5" />
    <rect x="180" y="44" width="344" height="30" class="cls-5" />
    <rect x="540" y="44" width="189" height="30" class="cls-5" />
    <path d="M713.425,17.611 L722.153,8.281 L722.930,9.009 L714.202,18.339 L713.425,17.611 Z" class="cls-6" />
    <path d="M722.964,17.906 L714.175,8.514 L713.392,9.247 L722.181,18.638 L722.964,17.906 Z" class="cls-6" />
    <path d="M2.000,84.000 L2.000,83.000 L738.000,83.000 L738.000,84.000 L2.000,84.000 Z" class="cls-7" />
    <path d="M137.077,548.380 L139.980,551.042 L137.077,553.704 L136.254,552.949 L138.333,551.042 L136.254,549.135 L137.077,548.380 Z" class="cls-8" />
    <rect x="702" y="133" width="24" height="232" class="cls-9" />
    <rect x="702" y="160" width="24" height="82" class="cls-10" />
    <rect x="571" y="421" width="139" height="34" class="cls-11" />
    <rect x="421" y="421" width="139" height="34" class="cls-12" />
    <text transform="translate(439 444) scale(0.52 0.52)" class="cls-13"><tspan class="cls-14">Select Folder</tspan></text>
    <rect x="189" y="261" width="513" height="24" class="cls-15" />
    <text transform="translate(616 444) scale(0.52 0.52)" class="cls-13"><tspan class="cls-14">Cancel</tspan></text>
    <text transform="translate(230 66) scale(0.53 0.53)" class="cls-3"><tspan class="cls-4">Project</tspan></text>
    <text transform="translate(332 66) scale(0.53 0.53)" class="cls-3"><tspan class="cls-4">Generated SDKs</tspan></text>
    <text transform="translate(547 66) scale(0.53 0.53)" class="cls-3"><tspan class="cls-16">Search</tspan></text>
    <text transform="translate(28 111) scale(0.53 0.53)" class="cls-3"><tspan class="cls-4">Organize</tspan></text>
    <text transform="translate(158 111) scale(0.53 0.53)" class="cls-3"><tspan class="cls-4">New folder</tspan></text>
    <path d="M107.005,109.848 L102.932,102.794 L111.077,102.794 L107.005,109.848 Z" class="cls-17" />
    <text transform="translate(190 396) scale(0.53 0.53)" class="cls-3"><tspan class="cls-18">D7SMS-Node</tspan></text>
    <text transform="translate(120 396) scale(0.53 0.53)" class="cls-3"><tspan class="cls-18">Folder:</tspan></text>
    <text transform="translate(216 155) scale(0.53 0.53)" class="cls-3"><tspan class="cls-4">SDK Version 1.0</tspan></text>
    <text transform="translate(215 305) scale(0.53 0.53)" class="cls-3"><tspan class="cls-4">SDK Version 1.1</tspan></text>
    <text transform="translate(217 330) scale(0.53 0.53)" class="cls-3"><tspan class="cls-4">SDK Version 1.2</tspan></text>
    <text transform="translate(215 355) scale(0.53 0.53)" class="cls-3"><tspan class="cls-4">SDK Version 1.3</tspan></text>
    <path d="M314.322,54.993 L319.012,59.499 L314.322,64.005 L312.992,62.727 L316.351,59.499 L312.992,56.271 L314.322,54.993 Z" class="cls-19" />
    <path d="M514.007,58.322 L509.501,63.012 L504.995,58.322 L506.273,56.992 L509.501,60.351 L512.729,56.992 L514.007,58.322 Z" class="cls-19" />
    <path d="M214.339,56.996 L211.994,59.499 L214.339,62.003 L215.004,61.293 L213.325,59.499 L215.004,57.706 L214.339,56.996 Z" class="cls-19" />
    <path d="M211.339,56.996 L208.994,59.499 L211.339,62.003 L212.004,61.293 L210.325,59.499 L212.004,57.706 L211.339,56.996 Z" class="cls-19" />
    <text transform="translate(216 180) scale(0.53 0.53)" class="cls-3"><tspan class="cls-4">SDK Version 1.4</tspan></text>
    <path d="M22.322,143.993 L27.012,148.499 L22.322,153.005 L20.992,151.727 L24.351,148.499 L20.992,145.271 L22.322,143.993 Z" class="cls-17" />
    <path d="M32.322,188.993 L37.012,193.499 L32.322,198.005 L30.992,196.727 L34.351,193.499 L30.992,190.271 L32.322,188.993 Z" class="cls-19" />
    <path d="M32.322,214.993 L37.012,219.499 L32.322,224.005 L30.992,222.727 L34.351,219.499 L30.992,216.271 L32.322,214.993 Z" class="cls-19" />
    <path d="M32.322,239.993 L37.012,244.499 L32.322,249.005 L30.992,247.727 L34.351,244.499 L30.992,241.271 L32.322,239.993 Z" class="cls-19" />
    <path d="M32.322,263.993 L37.012,268.499 L32.322,273.005 L30.992,271.727 L34.351,268.499 L30.992,265.271 L32.322,263.993 Z" class="cls-19" />
    <path d="M32.322,289.993 L37.012,294.499 L32.322,299.005 L30.992,297.727 L34.351,294.499 L30.992,291.271 L32.322,289.993 Z" class="cls-19" />
    <path d="M32.322,314.993 L37.012,319.499 L32.322,324.005 L30.992,322.727 L34.351,319.499 L30.992,316.271 L32.322,314.993 Z" class="cls-19" />
    <path d="M32.322,336.993 L37.012,341.499 L32.322,346.005 L30.992,344.727 L34.351,341.499 L30.992,338.271 L32.322,336.993 Z" class="cls-19" />
    <path d="M29.007,169.322 L24.501,174.012 L19.995,169.322 L21.274,167.992 L24.501,171.351 L27.729,167.992 L29.007,169.322 Z" class="cls-19" />
    <path d="M131.007,57.322 L126.501,62.012 L121.995,57.322 L123.274,55.992 L126.501,59.351 L129.729,55.992 L131.007,57.322 Z" class="cls-19" />
    <path d="M166.008,55.458 L161.001,49.986 L155.995,55.458 L157.415,57.010 L161.001,53.091 L164.587,57.010 L166.008,55.458 Z" class="cls-19" />
    <path d="M160.000,52.000 L162.000,52.000 L162.000,69.000 L160.000,69.000 L160.000,52.000 Z" class="cls-19" />
    <path d="M22.458,54.992 L16.986,59.999 L22.458,65.005 L24.010,63.585 L20.091,59.999 L24.010,56.413 L22.458,54.992 Z" class="cls-19" />
    <path d="M19.000,61.000 L19.000,59.000 L36.000,59.000 L36.000,61.000 L19.000,61.000 Z" class="cls-19" />
    <path d="M80.542,66.008 L86.014,61.001 L80.542,55.995 L78.990,57.415 L82.909,61.001 L78.990,64.587 L80.542,66.008 Z" class="cls-17" />
    <path d="M84.000,60.000 L84.000,62.000 L67.000,62.000 L67.000,60.000 L84.000,60.000 Z" class="cls-17" />
    <path d="M194.000,141.000 L194.000,155.303 L204.546,155.303 C204.546,155.303 205.000,155.336 205.000,154.834 C205.000,154.333 205.000,150.614 205.000,150.614 L204.093,149.676 L204.093,141.586 C204.093,141.586 204.085,141.000 203.526,141.000 L194.000,141.000 Z" class="cls-20" />
    <path d="M194.000,141.000 L194.000,155.303 L197.402,158.000 L197.402,153.545 L197.742,152.959 L197.742,144.048 L194.000,141.000 Z" class="cls-21" />
    <path d="M187.000,52.000 L187.000,66.303 L197.546,66.303 C197.546,66.303 198.000,66.336 198.000,65.834 C198.000,65.333 198.000,61.614 198.000,61.614 L197.093,60.676 L197.093,52.586 C197.093,52.586 197.085,52.000 196.526,52.000 L187.000,52.000 Z" class="cls-20" />
    <path d="M187.000,52.000 L187.000,66.303 L190.402,69.000 L190.402,64.545 L190.742,63.959 L190.742,55.048 L187.000,52.000 Z" class="cls-21" />
    <path d="M194.000,167.000 L194.000,181.303 L204.546,181.303 C204.546,181.303 205.000,181.336 205.000,180.834 C205.000,180.333 205.000,176.614 205.000,176.614 L204.093,175.676 L204.093,167.586 C204.093,167.586 204.085,167.000 203.526,167.000 L194.000,167.000 Z" class="cls-20" />
    <path d="M194.000,167.000 L194.000,181.303 L197.402,184.000 L197.402,179.545 L197.742,178.959 L197.742,170.048 L194.000,167.000 Z" class="cls-21" />
    <path d="M194.000,190.000 L194.000,204.303 L204.546,204.303 C204.546,204.303 205.000,204.336 205.000,203.834 C205.000,203.333 205.000,199.614 205.000,199.614 L204.093,198.676 L204.093,190.586 C204.093,190.586 204.085,190.000 203.526,190.000 L194.000,190.000 Z" class="cls-20" />
    <path d="M194.000,190.000 L194.000,204.303 L197.402,207.000 L197.402,202.545 L197.742,201.959 L197.742,193.048 L194.000,190.000 Z" class="cls-21" />
    <path d="M194.000,216.000 L194.000,230.303 L204.546,230.303 C204.546,230.303 205.000,230.336 205.000,229.834 C205.000,229.333 205.000,225.614 205.000,225.614 L204.093,224.676 L204.093,216.586 C204.093,216.586 204.085,216.000 203.526,216.000 L194.000,216.000 Z" class="cls-20" />
    <path d="M194.000,216.000 L194.000,230.303 L197.402,233.000 L197.402,228.545 L197.742,227.959 L197.742,219.048 L194.000,216.000 Z" class="cls-21" />
    <path d="M194.000,241.000 L194.000,255.303 L204.546,255.303 C204.546,255.303 205.000,255.336 205.000,254.834 C205.000,254.333 205.000,250.614 205.000,250.614 L204.093,249.676 L204.093,241.586 C204.093,241.586 204.085,241.000 203.526,241.000 L194.000,241.000 Z" class="cls-20" />
    <path d="M194.000,241.000 L194.000,255.303 L197.402,258.000 L197.402,253.545 L197.742,252.959 L197.742,244.048 L194.000,241.000 Z" class="cls-21" />
    <path d="M194.000,266.000 L194.000,280.303 L204.546,280.303 C204.546,280.303 205.000,280.336 205.000,279.834 C205.000,279.333 205.000,275.614 205.000,275.614 L204.093,274.676 L204.093,266.586 C204.093,266.586 204.085,266.000 203.526,266.000 L194.000,266.000 Z" class="cls-20" />
    <path d="M194.000,266.000 L194.000,280.303 L197.402,283.000 L197.402,278.545 L197.742,277.959 L197.742,269.048 L194.000,266.000 Z" class="cls-21" />
    <path d="M194.000,291.000 L194.000,305.303 L204.546,305.303 C204.546,305.303 205.000,305.336 205.000,304.834 C205.000,304.333 205.000,300.614 205.000,300.614 L204.093,299.676 L204.093,291.586 C204.093,291.586 204.085,291.000 203.526,291.000 L194.000,291.000 Z" class="cls-20" />
    <path d="M194.000,291.000 L194.000,305.303 L197.402,308.000 L197.402,303.545 L197.742,302.959 L197.742,294.048 L194.000,291.000 Z" class="cls-21" />
    <path d="M194.000,316.000 L194.000,330.303 L204.546,330.303 C204.546,330.303 205.000,330.336 205.000,329.834 C205.000,329.333 205.000,325.614 205.000,325.614 L204.093,324.676 L204.093,316.586 C204.093,316.586 204.085,316.000 203.526,316.000 L194.000,316.000 Z" class="cls-20" />
    <path d="M194.000,316.000 L194.000,330.303 L197.402,333.000 L197.402,328.545 L197.742,327.959 L197.742,319.048 L194.000,316.000 Z" class="cls-21" />
    <path d="M194.000,341.000 L194.000,355.303 L204.546,355.303 C204.546,355.303 205.000,355.336 205.000,354.834 C205.000,354.333 205.000,350.614 205.000,350.614 L204.093,349.676 L204.093,341.586 C204.093,341.586 204.085,341.000 203.526,341.000 L194.000,341.000 Z" class="cls-20" />
    <path d="M194.000,341.000 L194.000,355.303 L197.402,358.000 L197.402,353.545 L197.742,352.959 L197.742,344.048 L194.000,341.000 Z" class="cls-21" />
    <text transform="translate(216 205) scale(0.53 0.53)" class="cls-3"><tspan class="cls-4">SDK Version 1.5</tspan></text>
    <path d="M709.993,151.678 L714.499,146.988 L719.005,151.678 L717.726,153.008 L714.499,149.649 L711.271,153.008 L709.993,151.678 Z" class="cls-19" />
    <path d="M709.993,351.322 L714.499,356.012 L719.005,351.322 L717.726,349.992 L714.499,353.351 L711.271,349.992 L709.993,351.322 Z" class="cls-19" />
    <rect x="156" y="133" width="24" height="232" class="cls-9" />
    <rect x="156" y="160" width="24" height="82" class="cls-10" />
    <rect x="12" y="307" width="144" height="24" class="cls-10" />
    <path d="M163.993,151.678 L168.499,146.988 L173.005,151.678 L171.726,153.008 L168.499,149.649 L165.271,153.008 L163.993,151.678 Z" class="cls-19" />
    <path d="M163.993,351.322 L168.499,356.012 L173.005,351.322 L171.726,349.992 L168.499,353.351 L165.271,349.992 L163.993,351.322 Z" class="cls-19" />
    <text transform="translate(216 230) scale(0.53 0.53)" class="cls-3"><tspan class="cls-4">SDK Version 1.6</tspan></text>
    <text transform="translate(216 254) scale(0.53 0.53)" class="cls-3"><tspan class="cls-4">SDK Version 1.7</tspan></text>
    <text transform="translate(216 279) scale(0.53 0.53)" class="cls-3"><tspan class="cls-4">D7SMS-Node</tspan></text>
    <text transform="translate(64 298) scale(0.53 0.53)" class="cls-22"><tspan class="cls-23">Local Disk</tspan></text>
    <text transform="translate(64 323) scale(0.53 0.53)" class="cls-22"><tspan class="cls-23">Local Disk (D:)</tspan></text>
    <text transform="translate(64 348) scale(0.53 0.53)" class="cls-22"><tspan class="cls-23">Local Disk (E:)</tspan></text>
    <path d="M44.000,185.000 L44.000,199.303 L54.546,199.303 C54.546,199.303 55.000,199.336 55.000,198.834 C55.000,198.333 55.000,194.614 55.000,194.614 L54.093,193.676 L54.093,185.586 C54.093,185.586 54.085,185.000 53.526,185.000 L44.000,185.000 Z" class="cls-20" />
    <path d="M44.000,185.000 L44.000,199.303 L47.402,202.000 L47.402,197.545 L47.742,196.959 L47.742,188.048 L44.000,185.000 Z" class="cls-21" />
    <path d="M44.000,211.000 L44.000,225.303 L54.546,225.303 C54.546,225.303 55.000,225.336 55.000,224.834 C55.000,224.333 55.000,220.614 55.000,220.614 L54.093,219.676 L54.093,211.586 C54.093,211.586 54.085,211.000 53.526,211.000 L44.000,211.000 Z" class="cls-20" />
    <path d="M44.000,211.000 L44.000,225.303 L47.402,228.000 L47.402,223.545 L47.742,222.959 L47.742,214.048 L44.000,211.000 Z" class="cls-21" />
    <path d="M44.000,236.000 L44.000,250.303 L54.546,250.303 C54.546,250.303 55.000,250.336 55.000,249.834 C55.000,249.333 55.000,245.614 55.000,245.614 L54.093,244.676 L54.093,236.586 C54.093,236.586 54.085,236.000 53.526,236.000 L44.000,236.000 Z" class="cls-20" />
    <path d="M44.000,236.000 L44.000,250.303 L47.402,253.000 L47.402,248.545 L47.742,247.959 L47.742,239.048 L44.000,236.000 Z" class="cls-21" />
    <path d="M44.000,261.000 L44.000,275.303 L54.546,275.303 C54.546,275.303 55.000,275.336 55.000,274.834 C55.000,274.333 55.000,270.614 55.000,270.614 L54.093,269.676 L54.093,261.586 C54.093,261.586 54.085,261.000 53.526,261.000 L44.000,261.000 Z" class="cls-20" />
    <path d="M44.000,261.000 L44.000,275.303 L47.402,278.000 L47.402,273.545 L47.742,272.959 L47.742,264.048 L44.000,261.000 Z" class="cls-21" />
    <path d="M44.000,286.000 L44.000,300.303 L54.546,300.303 C54.546,300.303 55.000,300.336 55.000,299.834 C55.000,299.333 55.000,295.614 55.000,295.614 L54.093,294.676 L54.093,286.586 C54.093,286.586 54.085,286.000 53.526,286.000 L44.000,286.000 Z" class="cls-20" />
    <path d="M44.000,286.000 L44.000,300.303 L47.402,303.000 L47.402,298.545 L47.742,297.959 L47.742,289.048 L44.000,286.000 Z" class="cls-21" />
    <path d="M44.000,311.000 L44.000,325.303 L54.546,325.303 C54.546,325.303 55.000,325.336 55.000,324.834 C55.000,324.333 55.000,320.614 55.000,320.614 L54.093,319.676 L54.093,311.586 C54.093,311.586 54.085,311.000 53.526,311.000 L44.000,311.000 Z" class="cls-20" />
    <path d="M44.000,311.000 L44.000,325.303 L47.402,328.000 L47.402,323.545 L47.742,322.959 L47.742,314.048 L44.000,311.000 Z" class="cls-21" />
    <path d="M44.000,336.000 L44.000,350.303 L54.546,350.303 C54.546,350.303 55.000,350.336 55.000,349.834 C55.000,349.333 55.000,345.614 55.000,345.614 L54.093,344.676 L54.093,336.586 C54.093,336.586 54.085,336.000 53.526,336.000 L44.000,336.000 Z" class="cls-20" />
    <path d="M44.000,336.000 L44.000,350.303 L47.402,353.000 L47.402,348.545 L47.742,347.959 L47.742,339.048 L44.000,336.000 Z" class="cls-21" />
    <text transform="translate(65 198) scale(0.53 0.53)" class="cls-22"><tspan class="cls-23">Desktop</tspan></text>
    <text transform="translate(41 174) scale(0.53 0.53)" class="cls-22"><tspan class="cls-23">This PC</tspan></text>
    <text transform="translate(41 155) scale(0.53 0.53)" class="cls-22"><tspan class="cls-23">OneDrive</tspan></text>
    <text transform="translate(65 223) scale(0.53 0.53)" class="cls-22"><tspan class="cls-23">Documents</tspan></text>
    <text transform="translate(65 247) scale(0.53 0.53)" class="cls-22"><tspan class="cls-23">Downloads</tspan></text>
    <text transform="translate(65 272) scale(0.53 0.53)" class="cls-22"><tspan class="cls-23">Music</tspan></text>
</svg>
