<svg xmlns="http://www.w3.org/2000/svg" xmlns:xlink="http://www.w3.org/1999/xlink" preserveAspectRatio="xMidYMid" width="990" height="468" viewBox="0 0 990 468">
  <defs>
    <style>
      .cls-1 {
        fill: #000;
        stroke: #c5c5c5;
        stroke-linejoin: round;
        stroke-width: 1px;
      }

      .cls-2, .cls-7, .cls-8 {
        fill: #fff;
      }

      .cls-3 {
        fill: #3a3935;
      }

      .cls-3, .cls-8 {
        fill-rule: evenodd;
      }

      .cls-4, .cls-5 {
        font-size: 16px;
      }

      .cls-5 {
        fill: #101010;
        font-family: "Myriad Pro";
      }

      .cls-6, .cls-7 {
        font-size: 13.333px;
      }

      .cls-7 {
        font-family: "Courier New";
      }
    </style>
  </defs>
  <rect width="990" height="468" class="cls-1"/>
  <rect x="1" y="1" width="989" height="29" class="cls-2"/>
  <path d="M910.242,15.293 L906.359,15.293 L904.988,15.293 L901.104,15.293 C900.726,15.293 900.419,15.028 900.419,14.701 C900.419,14.374 900.726,14.109 901.104,14.109 L904.988,14.109 L906.359,14.109 L910.242,14.109 C910.621,14.109 910.927,14.374 910.927,14.701 C910.927,15.028 910.621,15.293 910.242,15.293 Z" class="cls-3"/>
  <path d="M971.582,11.806 L968.726,14.701 L971.582,17.596 L971.582,17.596 C971.712,17.728 971.793,17.911 971.793,18.113 C971.793,18.516 971.470,18.844 971.072,18.844 C970.872,18.844 970.692,18.762 970.562,18.629 L970.562,18.629 L967.706,15.735 L964.851,18.629 L964.851,18.629 C964.720,18.762 964.540,18.844 964.341,18.844 C963.943,18.844 963.620,18.516 963.620,18.113 C963.620,17.911 963.700,17.728 963.831,17.596 L963.831,17.596 L966.686,14.701 L963.831,11.806 L963.831,11.806 C963.700,11.674 963.620,11.491 963.620,11.289 C963.620,10.885 963.943,10.558 964.341,10.558 C964.540,10.558 964.720,10.640 964.851,10.772 L964.851,10.772 L967.706,13.667 L970.562,10.772 L970.562,10.772 C970.692,10.640 970.872,10.558 971.072,10.558 C971.470,10.558 971.793,10.885 971.793,11.289 C971.793,11.491 971.712,11.674 971.582,11.806 L971.582,11.806 Z" class="cls-3"/>
  <path d="M940.393,18.844 L932.986,18.844 C932.775,18.844 932.603,18.670 932.603,18.455 L932.603,10.946 C932.603,10.732 932.775,10.558 932.986,10.558 L940.393,10.558 C940.605,10.558 940.776,10.732 940.776,10.946 L940.776,18.455 C940.776,18.670 940.605,18.844 940.393,18.844 ZM940.010,11.335 L933.369,11.335 L933.369,18.067 L940.010,18.067 L940.010,11.335 Z" class="cls-3"/>
  <text x="10" y="20" class="cls-4"><tspan class="cls-5">C:\WINDOWS\system32\cmd.exe</tspan></text>
  <text x="48" y="42" class="cls-6"><tspan class="cls-7">caseless@0.11.0</tspan><tspan dy="1.2em" x="48" class="cls-7">is-typedarray@1.0.0</tspan><tspan dy="1.2em" x="48" class="cls-7">stringstream@0.0.5</tspan><tspan dy="1.2em" x="48" class="cls-7">aws4@1.5.0</tspan><tspan dy="1.2em" x="48" class="cls-7">isstream@0.1.2</tspan><tspan dy="1.2em" x="48" class="cls-7">json-stringify-safe@5.0.1</tspan><tspan dy="1.2em" x="48" class="cls-7">extend@3.0.0</tspan><tspan dy="1.2em" x="48" class="cls-7">uuid@3.0.0</tspan><tspan dy="1.2em" x="48" class="cls-7">qs@6.3.0</tspan><tspan dy="1.2em" x="48" class="cls-7">combined-stream@1.0.5 (delayed-stream@1.0.0)</tspan><tspan dy="1.2em" x="48" class="cls-7">tough-cookie@2.3.2 (punycode@1.4.1)</tspan><tspan dy="1.2em" x="48" class="cls-7">form-data@2.1.2 (asynckit@0.4.0)</tspan><tspan dy="1.2em" x="48" class="cls-7">mime-types@2.1.13 (mime-db@1.25.0)</tspan><tspan dy="1.2em" x="48" class="cls-7">hawk@3.1.3 (cryptiles@2.0.5, boom@2.10.1, sntp@1.0.9, hoek@2.16.3)</tspan><tspan dy="1.2em" x="48" class="cls-7">http-signature@1.1.1 (assert-plus@0.2.0, jsprim@1.3.1, sshpk@1.10.1)</tspan><tspan dy="1.2em" x="48" class="cls-7">har-validator@2.0.6 (commander@2.9.0, pinkie-promise@2.0.1, chalk@1.1.3, is-my-json-valid@2.15.0)</tspan></text>
  <path d="M16.000,279.000 L16.000,278.000 L39.000,278.000 L39.000,279.000 L16.000,279.000 Z" class="cls-8"/>
  <path d="M39.000,262.000 L39.000,263.000 L17.000,263.000 L17.000,262.000 L39.000,262.000 Z" class="cls-8"/>
  <path d="M39.000,246.000 L39.000,247.000 L17.000,247.000 L17.000,246.000 L39.000,246.000 Z" class="cls-8"/>
  <path d="M39.000,230.000 L39.000,231.000 L17.000,231.000 L17.000,230.000 L39.000,230.000 Z" class="cls-8"/>
  <path d="M39.000,214.000 L39.000,215.000 L17.000,215.000 L17.000,214.000 L39.000,214.000 Z" class="cls-8"/>
  <path d="M39.000,198.000 L39.000,199.000 L17.000,199.000 L17.000,198.000 L39.000,198.000 Z" class="cls-8"/>
  <path d="M39.000,183.000 L39.000,184.000 L17.000,184.000 L17.000,183.000 L39.000,183.000 Z" class="cls-8"/>
  <path d="M39.000,167.000 L39.000,168.000 L17.000,168.000 L17.000,167.000 L39.000,167.000 Z" class="cls-8"/>
  <path d="M39.000,151.000 L39.000,152.000 L17.000,152.000 L17.000,151.000 L39.000,151.000 Z" class="cls-8"/>
  <path d="M39.000,135.000 L39.000,136.000 L17.000,136.000 L17.000,135.000 L39.000,135.000 Z" class="cls-8"/>
  <path d="M39.000,119.000 L39.000,120.000 L17.000,120.000 L17.000,119.000 L39.000,119.000 Z" class="cls-8"/>
  <path d="M39.000,103.000 L39.000,104.000 L17.000,104.000 L17.000,103.000 L39.000,103.000 Z" class="cls-8"/>
  <path d="M39.000,87.000 L39.000,88.000 L17.000,88.000 L17.000,87.000 L39.000,87.000 Z" class="cls-8"/>
  <path d="M39.000,71.000 L39.000,72.000 L17.000,72.000 L17.000,71.000 L39.000,71.000 Z" class="cls-8"/>
  <path d="M39.000,55.000 L39.000,56.000 L17.000,56.000 L17.000,55.000 L39.000,55.000 Z" class="cls-8"/>
  <path d="M39.000,39.000 L39.000,40.000 L17.000,40.000 L17.000,39.000 L39.000,39.000 Z" class="cls-8"/>
  <path d="M16.000,30.000 L17.000,30.000 L17.000,278.000 L16.000,278.000 L16.000,30.000 Z" class="cls-8"/>
</svg>
